<?xml version="1.0" encoding="utf-8"?>
<!-- Generator: Adobe Illustrator 25.4.1, SVG Export Plug-In . SVG Version: 6.00 Build 0)  -->
<svg version="1.1" id="Capa_1" xmlns="http://www.w3.org/2000/svg" xmlns:xlink="http://www.w3.org/1999/xlink" x="0px" y="0px"
	 viewBox="0 0 75 74" style="enable-background:new 0 0 75 74;" xml:space="preserve">
<style type="text/css">
	.st0{fill-rule:evenodd;clip-rule:evenodd;}
	.st1{fill-rule:evenodd;clip-rule:evenodd;fill:#00FFFF;}
</style>
<g id="_x2D_-">
	<g id="Group-13" transform="translate(10.000000, 6.000000)">
		<path id="Fill-1" class="st0" d="M20.7,32.3h0.8v-5.1c-1.9,0.8-3.6,2-5.1,3.6l2.6,1.2C19.6,32.2,20.1,32.3,20.7,32.3"/>
		<path id="Fill-3" class="st0" d="M11.3,41.2l2.9,1.6c0.6,0.4,1.4,0.6,2.1,0.6h0.4c1.3,0,2.5-0.7,3.1-1.8c0.5-1,1.5-1.6,2.6-1.8
			l1.9-0.3c0.8-0.1,1.4-0.8,1.4-1.6c0-0.2,0-0.4-0.1-0.6l-1-2.3c-0.3-0.6-0.9-1-1.6-1h0v2.6h-1.8v-2.6h-0.8c-0.8,0-1.6-0.1-2.4-0.4
			l-3.2-1.2C12.8,34.7,11.4,37.8,11.3,41.2"/>
		<path id="Fill-5" class="st0" d="M31.4,56l-1.3-0.3c-1.5-0.3-2.5-1.5-2.5-2.9v-4.7c0-0.7-0.6-1.3-1.4-1.3c-0.5,0-1,0.3-1.3,0.7
			l-2.4,3.8c-0.6,0.9-1.7,1.5-2.9,1.5h-1.1c-0.5,0-0.9,0.2-1.2,0.6l-0.9,1.2c2.8,2.1,6.3,3.3,10.2,3.3c2.1,0,4.1-0.4,6-1.1l-0.5-0.5
			C31.9,56.1,31.7,56,31.4,56"/>
		<path id="Fill-7" class="st0" d="M39.1,37c-0.5,0.9-1.3,1.6-2.3,1.8c-0.9,0.3-1.6,1.1-1.6,2.1v0.8c0,1.1-0.4,2.1-1.1,2.9
			c-0.4,0.4-0.6,1-0.6,1.6v0.7c0,0.7,0.3,1.4,0.9,1.8l0.5,0.4c0.6,0.5,1.1,1.1,1.4,1.9l1,2.6c2.9-2.8,4.7-6.9,4.7-11.4
			c0-2.6-0.6-5.1-1.7-7.3L39.1,37z"/>
		<path id="Fill-9" class="st1" d="M51.4,23.2c0-3.2-2.5-5.7-5.5-5.7H45l-0.1-0.9c-0.4-4.4-4-7.7-8.2-7.7c-1.7,0-3.3,0.5-4.6,1.5
			l-0.7,0.5l-0.6-0.8c-1.9-3.6-5.6-5.9-9.6-5.9c-5.7,0-10.6,4.6-11,10.6l0,0.8l-0.8,0.1c-3.2,0.4-5.7,3.2-5.7,6.6
			c0,3.7,2.9,6.7,6.4,6.7h6.8c1.5-1.2,3.3-2.2,5.2-2.9v-5l-3,3.7l-1.4-1.2l5.3-6.6l5.3,6.6l-1.4,1.2l-3-3.7v4.4
			c1.2-0.3,2.4-0.4,3.7-0.4s2.5,0.1,3.7,0.4v-7.1H33V26c1.9,0.7,3.6,1.6,5.2,2.9h7.7C48.9,28.9,51.4,26.3,51.4,23.2"/>
		<path id="Fill-11" class="st0" d="M33.7,51.1l-0.6-0.4c-1.1-0.7-1.8-2-1.8-3.3v-0.7c0-1.1,0.4-2.1,1.2-2.8c0.4-0.4,0.7-1,0.7-1.6
			v-0.8c0-1.8,1.3-3.4,3.1-3.9c0.6-0.2,1.1-0.5,1.4-1l1.8-2.9c-1.8-2.4-4.3-4.4-7.1-5.4v6.5l3-3.5l1.4,1.2l-5.3,6.3l-5.3-6.3
			l1.4-1.2l3,3.5v-7.1c-1.2-0.3-2.4-0.5-3.7-0.5c-1.3,0-2.5,0.2-3.7,0.5v5h0c1.5,0,2.8,0.9,3.3,2.2l1,2.4c0.2,0.4,0.3,0.9,0.3,1.3
			c0,1.7-1.3,3.2-3,3.5l-2,0.3c-0.5,0.1-1,0.4-1.3,0.9c-0.9,1.8-2.8,2.9-4.8,2.9h-0.4c-1.1,0-2.2-0.3-3.1-0.9l-1.9-1.1
			c0.4,3.5,1.9,6.6,4.2,9l0.7-1c0.6-0.9,1.6-1.4,2.7-1.4H20c0.5,0,1-0.3,1.2-0.7l2.3-4.1c0.6-1,1.6-1.6,2.8-1.6
			c1.8,0,3.2,1.4,3.2,3.2v5c0,0.6,0.4,1.2,1.1,1.4l1.3,0.3c0.6,0.1,1.1,0.4,1.5,0.8l1,1c0.5-0.3,1-0.6,1.5-0.9l-1.3-3.2
			C34.4,51.7,34.1,51.3,33.7,51.1"/>
	</g>
</g>
</svg>
