<?xml version="1.0" encoding="utf-8"?>
<!-- Generator: Adobe Illustrator 25.4.1, SVG Export Plug-In . SVG Version: 6.00 Build 0)  -->
<svg version="1.1" id="Capa_1" xmlns="http://www.w3.org/2000/svg" xmlns:xlink="http://www.w3.org/1999/xlink" x="0px" y="0px"
	 viewBox="0 0 75 74" style="enable-background:new 0 0 75 74;" xml:space="preserve">
<style type="text/css">
	.st0{fill:#00FFFF;}
</style>
<g id="_x2D_-">
	<g id="europe" transform="translate(8.000000, 8.000000)">
		<path id="Shape" d="M47.6,15.5V4H4.5V54h8.8V35.6h6.8V47h34.3V15.5H47.6z M10.4,51H7.5V7h2.9V51z M13.3,7h31.4v25.7H13.3V7z
			 M39.6,35.6l-16.5,7.7v-7.7H39.6z M51.5,44.1H28.2l19.4-9V18.4h3.9V44.1z"/>
		<polygon id="Path" class="st0" points="27.4,10 30.8,10 30.8,13.3 27.4,13.3 		"/>
		<polygon id="Path_00000080922809638366387580000016789999491846108040_" class="st0" points="27.4,26.9 30.8,26.9 30.8,30.3 
			27.4,30.3 		"/>
		<polygon id="Path_00000098212737378539438980000001025552461041725870_" class="st0" points="35.8,18.4 39.2,18.4 39.2,21.8 
			35.8,21.8 		"/>
		<polygon id="Path_00000103948424837587181810000014019434241541530248_" class="st0" points="18.9,18.4 22.3,18.4 22.3,21.8 
			18.9,21.8 		"/>
		<polygon id="Path_00000052823268553000677880000012352129026603872417_" class="st0" points="33.3,24.3 36.7,24.3 36.7,27.7 
			33.3,27.7 		"/>
		<polygon id="Path_00000025429016031302340980000010435580746533173139_" class="st0" points="21.5,11.6 24.8,11.6 24.8,15 
			21.5,15 		"/>
		<polygon id="Path_00000097469108421667938290000004003758043243317913_" class="st0" points="33.3,11.6 36.7,11.6 36.7,15 
			33.3,15 		"/>
		<polygon id="Path_00000118385381737732479170000002438410902726040229_" class="st0" points="21.5,24.3 24.8,24.3 24.8,27.7 
			21.5,27.7 		"/>
	</g>
</g>
</svg>
