<?xml version="1.0" encoding="UTF-8"?>
<svg width="54px" height="71px" viewBox="0 0 54 71" version="1.1" xmlns="http://www.w3.org/2000/svg" xmlns:xlink="http://www.w3.org/1999/xlink">
    <title>plan</title>
    <g id="Page-1" stroke="none" stroke-width="1" fill="none" fill-rule="evenodd">
        <g id="--" transform="translate(-11.000000, -2.000000)" fill-rule="nonzero">
            <g id="plan" transform="translate(11.000000, 2.000000)">
                <path d="M54,13.0482222 C54,12.6695556 53.8570168,12.3066667 53.5710503,12.0226667 L41.8940865,0.426 C41.60812,0.142 41.2427184,0 40.8614298,0 L40.8614298,0 L1.46160635,0 C0.651368049,0 0,0.646888889 0,1.45155556 L0,69.5484444 C0,70.3531111 0.651368049,71 1.46160635,71 L52.5225066,71 C53.3327449,71 53.984113,70.3531111 53.984113,69.5484444 L54,13.0482222 L54,13.0482222 Z M42.3230362,4.95422222 L49.011474,11.5966667 L42.3230362,11.5966667 L42.3230362,4.95422222 Z M51.0767873,68.0968889 L2.93909974,68.0968889 L2.93909974,2.90311111 L39.4157105,2.90311111 L39.4157105,13.0482222 C39.4157105,13.8528889 40.0670786,14.4997778 40.8773169,14.4997778 L51.0926743,14.4997778 L51.0926743,68.0968889 L51.0767873,68.0968889 Z" id="Shape" fill="#000000"></path>
                <path d="M29.670725,27.6028468 L29.670725,28.0248395 C29.670725,36.1052191 26.252352,41.9349707 19.5118982,45.3421714 C14.3442169,47.9522746 9.0641948,48.1241976 9,48.1241976 L9.0320974,49.5620988 L9.0641948,51 C9.30492529,51 14.9861649,50.828077 20.747648,47.9522746 C26.1560598,45.2483952 32.607637,39.6061959 32.607637,28.0404689 L32.607637,27.6184761 L36.0581074,30.556796 L38,28.3999442 L32.1101273,23.3516606 C31.5484228,22.8827798 30.7299391,22.8827798 30.1682346,23.3516606 L24.2783619,28.3686855 L26.2202546,30.5255373 L29.670725,27.6028468 Z" id="Path" fill="#00FFFF"></path>
                <path d="M31,20 C34.3188011,20 37,17.3061224 37,14.0081633 C37,10.7102041 34.3024523,8 31,8 C27.6811989,8 25,10.6938776 25,13.9918367 C25,17.2897959 27.6811989,20 31,20 Z M31,11.0040816 C32.6512262,11.0040816 34.0081744,12.3428571 34.0081744,14.0081633 C34.0081744,15.6734694 32.6675749,17.0122449 31,17.0122449 C29.3487738,17.0122449 27.9918256,15.6734694 27.9918256,14.0081633 C27.9918256,12.3428571 29.3324251,11.0040816 31,11.0040816 Z" id="Shape" fill="#000000"></path>
                <polygon id="Path" fill="#000000" points="13.0998532 29 11 31.0998532 14.3920705 34.4919236 11 37.9001468 13.0998532 40 16.4919236 36.5917768 19.9001468 40 22 37.9001468 18.5917768 34.4919236 22 31.0998532 19.9001468 29 16.4919236 32.3920705"></polygon>
                <polygon id="Path" fill="#000000" points="35.0998532 38 33 40.0998532 36.4082232 43.4919236 33 46.9001468 35.0998532 49 38.5080764 45.5917768 41.9001468 49 44 46.9001468 40.6079295 43.4919236 44 40.0998532 41.9001468 38 38.5080764 41.3920705"></polygon>
                <rect id="Rectangle" fill="#000000" x="7" y="6" width="12" height="3"></rect>
                <rect id="Rectangle" fill="#000000" x="7" y="12" width="7" height="3"></rect>
                <rect id="Rectangle" fill="#000000" x="8" y="55" width="7" height="3"></rect>
                <rect id="Rectangle" fill="#000000" x="8" y="61" width="30" height="3"></rect>
                <rect id="Rectangle" fill="#000000" x="19" y="55" width="7" height="3"></rect>
                <rect id="Rectangle" fill="#000000" x="29" y="55" width="7" height="3"></rect>
                <rect id="Rectangle" fill="#000000" x="39" y="55" width="7" height="3"></rect>
            </g>
        </g>
    </g>
</svg>