<?xml version="1.0" encoding="UTF-8"?>
<svg width="75px" height="74px" viewBox="0 0 75 74" version="1.1" xmlns="http://www.w3.org/2000/svg" xmlns:xlink="http://www.w3.org/1999/xlink">
    <title>  </title>
    <defs>
        <path d="M48.5603776,34.5940302 L49.7223244,38.5630004 C50.0467083,39.6746855 49.385068,40.3467882 48.2522986,40.056562 L44.207797,39.0178578 C43.0750276,38.7276316 41.9551306,39.4184039 41.7208533,40.5521529 L41,44.0314725 L52.830575,57 L53.7676842,49.0960041 L62,48.8244475 L48.481427,34 C48.4779944,34.1951813 48.5020228,34.3937571 48.5603776,34.5940302" id="path-1"></path>
        <path d="M21.3049834,41.0755244 L17.5440462,42.7020897 C16.4898759,43.1575621 15.7521245,42.5869422 15.9040392,41.4329082 L16.4479105,37.3157446 C16.5989858,36.1642694 15.7898933,35.1432947 14.6475957,35.0494708 L14.061759,35 L0,47.8879929 L7.81731072,48.8202613 L8.08672845,57 L24,42.4163533 L23.934534,42.2346761 C23.5417381,41.1412011 22.3591537,40.620052 21.3049834,41.0755244" id="path-2"></path>
    </defs>
    <g id="--" stroke="none" stroke-width="1" fill="none" fill-rule="evenodd">
        <g id="Group-9" transform="translate(7.000000, 9.000000)">
            <path d="M53.4508225,19.8139045 C54.3187654,19.0482745 54.1379439,18.116987 53.0496512,17.7470469 L49.1666159,16.4209278 C48.0783232,16.0501294 47.5308127,14.8544764 47.9513276,13.7652562 L49.450884,9.87530673 C49.870558,8.78608654 49.2860422,8.04620648 48.1556979,8.23418065 L44.112026,8.90281936 C42.9783176,9.0899352 41.9522611,8.28997207 41.8269476,7.12693554 L41.3820428,2.97090391 C41.2584114,1.80700905 40.406448,1.43106071 39.4880433,2.13317428 L36.2130727,4.64378818 C35.2955091,5.34590175 34.0213487,5.12531105 33.3813249,4.15368201 L31.0962465,0.685172343 C30.4562228,-0.286456696 29.5285667,-0.216073674 29.0374052,0.841388319 L27.2788116,4.61717997 C26.7868091,5.67378363 25.5589054,6.08406515 24.5488284,5.52700928 L20.9458562,3.53911806 C19.9374613,2.98292052 19.1485752,3.48590163 19.1931498,4.65494647 L19.3563096,8.83157801 C19.4034072,10.0014812 18.5009821,10.946502 17.3538173,10.9319104 L13.2588425,10.8812689 C12.1125187,10.8666773 11.643224,11.6846654 12.2151243,12.6992109 L14.2621912,16.3213616 C14.8349326,17.3350488 14.4665615,18.5993682 13.4438691,19.1315325 L9.79548117,21.0275824 C8.77362978,21.5597468 8.73073726,22.5073426 9.69876272,23.1322065 L13.1596009,25.3681549 C14.1293085,25.9955938 14.3790944,27.2882381 13.7163628,28.2452755 L11.3480224,31.6554188 C10.6861319,32.6107396 11.0780518,33.4690691 12.2218526,33.5634854 L16.3042119,33.9025255 C17.4480126,33.9969418 18.2596065,35.0243623 18.105698,36.1848238 L17.5632337,40.3279805 C17.4110073,41.4875837 18.1502726,42.0618062 19.2066062,41.6051748 L22.9744204,39.9683404 C24.0290719,39.5099924 25.2157652,40.0344318 25.6102082,41.1348102 L27.0147282,45.0608096 C27.4083302,46.1594714 28.3258939,46.317404 29.0500207,45.4118663 L31.642075,42.1751057 C32.3687249,41.2687097 33.6563417,41.1708601 34.506623,41.9579483 L37.5385359,44.7681192 C38.3879762,45.5552074 39.2710576,45.259942 39.5023408,44.1132138 L40.322345,40.0181235 C40.5536283,38.8713953 41.6486493,38.172715 42.7596498,38.4679804 L46.7234239,39.5168591 C47.8352655,39.8104078 48.4828586,39.1306108 48.1632672,38.0061991 L47.0253537,33.9917918 C46.7074444,32.8665218 47.3617657,31.7283768 48.4778124,31.4622947 L52.4668174,30.5104072 C53.5845462,30.244325 53.8486296,29.3362124 53.0538563,28.4916161 L50.2179033,25.4754461 C49.4239711,24.6299915 49.4836842,23.3124557 50.3524681,22.5476841 L53.4508225,19.8139045" id="Fill-49" fill="#000000"></path>
            <g id="Fill-50" fill="#00FFFF">
                <use xlink:href="#path-1"></use>
                <use xlink:href="#path-1"></use>
            </g>
            <g id="Fill-51" fill="#00FFFF">
                <use xlink:href="#path-2"></use>
                <use xlink:href="#path-2"></use>
            </g>
        </g>
    </g>
</svg>