<?xml version="1.0" encoding="utf-8"?>
<!-- Generator: Adobe Illustrator 25.4.1, SVG Export Plug-In . SVG Version: 6.00 Build 0)  -->
<svg version="1.1" id="Capa_1" xmlns="http://www.w3.org/2000/svg" xmlns:xlink="http://www.w3.org/1999/xlink" x="0px" y="0px"
	 viewBox="0 0 75 74" style="enable-background:new 0 0 75 74;" xml:space="preserve">
<style type="text/css">
	.st0{fill:#00FFFF;}
</style>
<g id="_x2D_-">
	<g id="plan" transform="translate(15.000000, 8.000000)">
		<path id="Shape" d="M40.8,13.8c0-0.3-0.1-0.5-0.3-0.7l-7.9-7.8C32.4,5.1,32.2,5,31.9,5l0,0H5.2c-0.5,0-1,0.4-1,1v46
			c0,0.5,0.4,1,1,1h34.6c0.5,0,1-0.4,1-1L40.8,13.8L40.8,13.8z M32.9,8.3l4.5,4.5h-4.5V8.3z M38.8,51H6.2V7h24.7v6.9
			c0,0.5,0.4,1,1,1h6.9L38.8,51L38.8,51z"/>
		<path id="Path" class="st0" d="M23.8,23.5v0.3c0,5.4-2.3,9.3-6.8,11.6c-3.5,1.7-7,1.9-7.1,1.9l0,1l0,1c0.2,0,4-0.1,7.9-2
			c3.6-1.8,8-5.6,8-13.3v-0.3l2.3,2l1.3-1.4l-4-3.4c-0.4-0.3-0.9-0.3-1.3,0l-4,3.4l1.3,1.4L23.8,23.5z"/>
		<path id="Shape_00000050648628306129885200000011977057627718789037_" d="M24.5,18c2.3,0,4.1-1.8,4.1-4.1s-1.8-4.1-4.1-4.1
			c-2.3,0-4.1,1.8-4.1,4.1S22.3,18,24.5,18z M24.5,11.9c1.1,0,2,0.9,2,2s-0.9,2-2,2c-1.1,0-2-0.9-2-2S23.4,11.9,24.5,11.9z"/>
		<polygon id="Path_00000037689675554019665620000017346507195253469873_" points="12.9,24.5 11.5,25.9 13.8,28.2 11.5,30.4 
			12.9,31.8 15.2,29.6 17.4,31.8 18.8,30.4 16.6,28.2 18.8,25.9 17.4,24.5 15.2,26.8 		"/>
		<polygon id="Path_00000071558111436227012840000005951154069918747052_" points="28.4,31 27,32.4 29.2,34.7 27,37 28.4,38.4 
			30.6,36.1 32.9,38.4 34.3,37 32,34.7 34.3,32.4 32.9,31 30.6,33.3 		"/>
		<rect id="Rectangle" x="8.3" y="9.1" width="8.1" height="1.6"/>
		<rect id="Rectangle_00000075857222536946985180000001260406686971026341_" x="9.1" y="13.1" width="4.9" height="1.6"/>
		<rect id="Rectangle_00000012445138975782549360000012297304990730641845_" x="9.9" y="42.4" width="4.9" height="1.6"/>
		<rect id="Rectangle_00000058573466639302751450000003836203583660770233_" x="9.9" y="46.5" width="20.3" height="1.6"/>
		<rect id="Rectangle_00000016056797829309242210000009952726041964269734_" x="16.4" y="42.4" width="4.9" height="1.6"/>
		<rect id="Rectangle_00000135680053551644104280000002695010615512450454_" x="23.7" y="42.4" width="4.9" height="1.6"/>
		<rect id="Rectangle_00000115500156337726994630000015373278131906936458_" x="30.2" y="42.4" width="4.9" height="1.6"/>
	</g>
</g>
</svg>
