<?xml version="1.0" encoding="utf-8"?>
<!-- Generator: Adobe Illustrator 25.4.1, SVG Export Plug-In . SVG Version: 6.00 Build 0)  -->
<svg version="1.1" id="Capa_1" xmlns="http://www.w3.org/2000/svg" xmlns:xlink="http://www.w3.org/1999/xlink" x="0px" y="0px"
	 viewBox="0 0 71 53" style="enable-background:new 0 0 71 53;" xml:space="preserve">
<style type="text/css">
	.st0{fill-rule:evenodd;clip-rule:evenodd;}
	.st1{fill-rule:evenodd;clip-rule:evenodd;fill:#00FFFF;}
</style>
<g id="Page-1">
	<g id="_x39_271" transform="translate(-707.000000, -992.000000)">
		<g id="Group-4" transform="translate(707.666000, 992.172000)">
			<g id="Group-3" transform="translate(7.652000, 0.000000)">
				<path id="Fill-229" class="st0" d="M20.8,7.5c-0.4,0-0.7,0.3-0.7,0.7V18c0,0.4,0.3,0.7,0.7,0.7h12.7c0.4,0,0.7-0.3,0.7-0.7V8.2
					c0-0.4-0.3-0.7-0.7-0.7H20.8z"/>
				<path id="Fill-233" class="st0" d="M46.9,25.5c0-0.4-0.3-0.7-0.7-0.7H28.7v-4c0-0.4-0.3-0.7-0.7-0.7h-1.5
					c-0.4,0-0.7,0.3-0.7,0.7v4H8.2c-0.4,0-0.7,0.3-0.7,0.7v0.3c0,0,0,0.1,0,0.1v5.9c0,0.4,0.3,0.7,0.7,0.7h1.5
					c0.4,0,0.7-0.3,0.7-0.7v-4h15.3v4c0,0.4,0.3,0.7,0.7,0.7h1.5c0.4,0,0.7-0.3,0.7-0.7v-4h15.3v4.2c0,0.4,0.3,0.7,0.7,0.7h1.5
					c0.4,0,0.7-0.3,0.7-0.7v-6.2c0,0,0,0,0,0V25.5"/>
			</g>
			<path id="Fill-230" class="st1" d="M59.3,33.9H46.6c-0.4,0-0.7,0.3-0.7,0.7v9.8c0,0.4,0.3,0.7,0.7,0.7h12.7
				c0.4,0,0.7-0.3,0.7-0.7v-9.8C60.1,34.3,59.7,33.9,59.3,33.9"/>
			<path id="Fill-231" class="st1" d="M41.2,33.9H28.5c-0.4,0-0.7,0.3-0.7,0.7v9.8c0,0.4,0.3,0.7,0.7,0.7h12.7
				c0.4,0,0.7-0.3,0.7-0.7v-9.8C41.9,34.3,41.6,33.9,41.2,33.9"/>
			<path id="Fill-232" class="st1" d="M23.1,33.9H10.3c-0.4,0-0.7,0.3-0.7,0.7v9.8c0,0.4,0.3,0.7,0.7,0.7h12.7
				c0.4,0,0.7-0.3,0.7-0.7v-9.8C23.8,34.3,23.5,33.9,23.1,33.9"/>
		</g>
	</g>
</g>
</svg>
