<svg id="Capa_1" enable-background="new 0 0 512 512" height="512" viewBox="0 0 512 512" width="512" xmlns="http://www.w3.org/2000/svg"><g><path d="m441.833 117.134v-117.134h-441.833v512h90v-188.167h70.167v117.134h351.833v-323.833zm-381.833 364.866h-30v-452h30zm30-452h321.833v263.833h-321.833zm269.058 293.833-168.891 78.608v-78.608zm122.942 87.135h-239.058l198.891-92.571v-171.263h40.167z"/><path d="m235.917 60h30v30h-30z"/><path d="m235.917 233.833h30v30h-30z"/><path d="m322.833 146.917h30v30h-30z"/><path d="m149 146.917h30v30h-30z"/><path d="m297.376 208.376h30v30h-30z"/><path d="m174.457 85.457h30v30h-30z"/><path d="m297.376 85.457h30v30h-30z"/><path d="m174.457 208.376h30v30h-30z"/></g></svg>