<?xml version="1.0" encoding="utf-8"?>
<!-- Generator: Adobe Illustrator 25.4.1, SVG Export Plug-In . SVG Version: 6.00 Build 0)  -->
<svg version="1.1" id="Capa_1" xmlns="http://www.w3.org/2000/svg" xmlns:xlink="http://www.w3.org/1999/xlink" x="0px" y="0px"
	 viewBox="0 0 48 64" style="enable-background:new 0 0 48 64;" xml:space="preserve">
<style type="text/css">
	.st0{fill:#020202;}
	.st1{fill:#00FFFF;stroke:#00FFFF;}
</style>
<g id="Page-1">
	<g id="_x2D_-" transform="translate(-14.000000, -5.000000)">
		<g id="medal" transform="translate(14.000000, 5.000000)">
			<path id="Shape" class="st0" d="M12,21c0,6.6,5.3,11.9,11.9,11.9S35.9,27.6,35.9,21S30.6,9.1,24,9.1S12,14.4,12,21z M24,10.7
				c5.7,0,10.3,4.6,10.3,10.3S29.6,31.3,24,31.3S13.7,26.7,13.7,21S18.3,10.7,24,10.7z"/>
			<path id="Shape_00000000901550061735301410000007082699441433687224_" class="st1" d="M16.1,19.1l3.1,3l-0.7,4.3
				c-0.1,0.3,0.1,0.6,0.3,0.8c0.2,0.1,0.6,0.2,0.9,0.1l3.8-2l3.8,2c0.3,0.1,0.6,0.1,0.9-0.1c0.2-0.1,0.4-0.5,0.3-0.8l-0.7-4.3l3.1-3
				c0.2-0.2,0.3-0.5,0.2-0.8s-0.4-0.5-0.6-0.6L26,17.1l-1.9-3.8c-0.1-0.3-0.4-0.4-0.7-0.4s-0.6,0.1-0.7,0.4l-1.9,3.8l-4.3,0.6
				c-0.3,0.1-0.6,0.3-0.6,0.6C15.7,18.5,15.9,18.9,16.1,19.1z M21.3,18.6c0.3-0.1,0.5-0.2,0.6-0.4l1.4-2.8l1.4,2.8
				c0.1,0.2,0.4,0.4,0.6,0.4l3.1,0.5l-2.2,2.2C26,21.5,25.9,21.7,26,22l0.5,3.1l-2.8-1.4c-0.1-0.1-0.2-0.1-0.4-0.1
				c-0.1,0-0.2,0-0.4,0.1l-2.8,1.4l0.5-3.1c0.1-0.3-0.1-0.5-0.2-0.7l-2.2-2.2L21.3,18.6z"/>
			<path id="Path" class="st0" d="M24.6,6.9c0,0.5-0.4,0.9-0.9,0.9c-0.5,0-0.9-0.4-0.9-0.9S23.2,6,23.7,6
				C24.2,5.9,24.6,6.3,24.6,6.9z"/>
			<path id="Shape_00000099629062331691484700000003863101592284783788_" class="st0" d="M20.2,6.6C13.6,8.3,8.9,14.1,8.9,21
				c0,4.2,1.8,8.2,5,11l-4.8,8.2C9,40.5,9,40.8,9.2,41.1c0.2,0.2,0.5,0.4,0.8,0.3l5.4-1.1l1.9,5.3c0.1,0.3,0.4,0.5,0.7,0.5
				c0.3,0,0.6-0.1,0.8-0.4l5.2-9l5.3,9.1c0.1,0.2,0.4,0.4,0.7,0.4H30c0.3,0,0.6-0.2,0.7-0.5l1.9-5.3l5.4,1.1
				c0.3,0.1,0.6-0.1,0.8-0.3c0.1-0.2,0.2-0.6,0.1-0.9L34.1,32c3.1-2.8,5-6.7,5-11c0-6.8-4.6-12.7-11.3-14.3c-0.4-0.1-0.9,0.1-1,0.6
				c-0.1,0.4,0.1,0.9,0.6,0.9c5.9,1.5,10.1,6.7,10.1,12.9c0,7.4-6.1,13.3-13.5,13.3S10.5,28.3,10.5,21c0-6,4.2-11.4,10.2-12.9
				c0.4-0.1,0.7-0.5,0.6-0.9C21.1,6.8,20.6,6.5,20.2,6.6z M18.2,43.4l-1.6-4.3c-0.1-0.4-0.5-0.6-0.9-0.5l-4.4,0.9l3.8-6.5
				c2.2,1.6,4.8,2.6,7.5,2.8L18.2,43.4z M32.2,38.6c-0.4-0.1-0.8,0.1-0.9,0.5l-1.6,4.3l-4.5-7.7c2.7-0.2,5.3-1.2,7.5-2.8l3.8,6.5
				L32.2,38.6z"/>
		</g>
	</g>
</g>
</svg>
