<?xml version="1.0" encoding="UTF-8"?>
<svg width="76px" height="78px" viewBox="0 0 76 78" version="1.1" xmlns="http://www.w3.org/2000/svg" xmlns:xlink="http://www.w3.org/1999/xlink">
    <title>Group 8</title>
    <g id="Page-1" stroke="none" stroke-width="1" fill="none" fill-rule="evenodd">
        <g id="9271" transform="translate(-50.000000, -677.000000)">
            <g id="Group-8" transform="translate(50.981000, 677.124000)">
                <path d="M11.424,28.439 L62.701,28.439 C64.248,28.439 65.499,29.571 65.499,30.971 L65.499,66.001 C65.499,67.398 64.248,68.529 62.701,68.529 L11.424,68.529 C9.878,68.529 8.626,67.398 8.626,66.001 L8.626,30.971 C8.626,29.571 9.878,28.439 11.424,28.439 Z M6.994,8.858 C3.132,8.858 0,11.989 0,15.852 L0,69.93 C0,73.791 3.132,76.922 6.994,76.922 L67.132,76.922 C70.994,76.922 74.125,73.791 74.125,69.93 L74.125,15.852 C74.125,11.989 70.994,8.858 67.132,8.858 L64.685,8.858 L64.685,13.286 C64.685,16.242 62.28,18.648 59.323,18.648 C56.367,18.648 53.962,16.242 53.962,13.286 L53.962,8.858 L20.163,8.858 L20.163,13.286 C20.163,16.242 17.758,18.648 14.803,18.648 C11.845,18.648 9.44,16.242 9.44,13.286 L9.44,8.858 L6.994,8.858 L6.994,8.858 Z" id="Fill-54" fill="#000000"></path>
                <path d="M12.239,2.564 L12.239,13.286 C12.239,14.701 13.388,15.852 14.803,15.852 C16.216,15.852 17.366,14.701 17.366,13.286 L17.366,2.564 C17.366,1.148 16.216,0 14.803,0 C13.388,0 12.239,1.148 12.239,2.564" id="Fill-55" fill="#000000"></path>
                <path d="M56.759,2.564 L56.759,13.286 C56.759,14.701 57.909,15.852 59.323,15.852 C60.738,15.852 61.887,14.701 61.887,13.286 L61.887,2.564 C61.887,1.148 60.738,0 59.323,0 C57.909,0 56.759,1.148 56.759,2.564" id="Fill-56" fill="#000000"></path>
                <polygon id="Fill-57" fill="#000000" points="13.528 46.691 27.094 46.691 27.094 32.809 13.528 32.809"></polygon>
                <polygon id="Fill-58" fill="#00FFFF" points="30.608 46.691 44.174 46.691 44.174 32.809 30.608 32.809"></polygon>
                <polygon id="Fill-59" fill="#00FFFF" points="13.528 63.755 27.094 63.755 27.094 49.872 13.528 49.872"></polygon>
                <polygon id="Fill-60" fill="#000000" points="30.608 63.755 44.174 63.755 44.174 49.872 30.608 49.872"></polygon>
                <polygon id="Fill-61" fill="#000000" points="48.321 46.691 61.887 46.691 61.887 32.809 48.321 32.809"></polygon>
                <polygon id="Fill-62" fill="#00FFFF" points="48.321 63.755 61.887 63.755 61.887 49.872 48.321 49.872"></polygon>
            </g>
        </g>
    </g>
</svg>