<?xml version="1.0" encoding="utf-8"?>
<!-- Generator: Adobe Illustrator 25.3.1, SVG Export Plug-In . SVG Version: 6.00 Build 0)  -->
<svg version="1.1" id="Capa_1" xmlns="http://www.w3.org/2000/svg" xmlns:xlink="http://www.w3.org/1999/xlink" x="0px" y="0px"
	 viewBox="0 0 896 160" style="enable-background:new 0 0 896 160;" xml:space="preserve">
<style type="text/css">
	.st0{fill:#939393;}
	.st1{fill-rule:evenodd;clip-rule:evenodd;fill:#00C8E6;}
	.st2{fill-rule:evenodd;clip-rule:evenodd;fill:#18E1FF;}
	.st3{fill:#FFFFFF;}
	.st4{fill:#18E1FF;}
	.st5{font-family:'Helvetica';}
	.st6{font-size:31px;}
</style>
<g id="Page-1">
	<g id="ECYSAP_dark">
		<g id="imago">
			<g id="Group" transform="translate(115.000000, 32.000000)">
				<path id="Rectangle-Copy-3" class="st0" d="M27.8,0h26.5c3.9,0,7,3.1,7,7c0,0.8-0.1,1.5-0.4,2.2L42.7,64l0,0H0L19.3,6.2
					C20.5,2.5,23.9,0,27.8,0z"/>
				<polygon id="Rectangle-Copy-3_1_" class="st0" points="0,80 45.4,80 75,128 32.7,128 				"/>
				<path id="Rectangle-Copy-3_2_" class="st1" d="M33.4,128H77L62.7,6.2c-0.4-3.5-3.4-6.2-7-6.2H26.8c-3.9,0-7,3.1-7,7
					c0,0.3,0,0.5,0,0.8L33.4,128L33.4,128z"/>
			</g>
			<g id="Group-2" transform="translate(55.000000, 0.000000)">
				<path id="Rectangle-Copy-9" class="st0" d="M26,0h22.4c7.7,0,14,6.3,14,14c0,0.8-0.1,1.6-0.2,2.4L48.4,96H1L16.2,8.3
					C17,3.5,21.1,0,26,0z"/>
				<polygon id="Rectangle-Copy-9_1_" class="st0" points="0,112 45.9,112 78,160 32.1,160 				"/>
				<path id="Rectangle-Copy-9_2_" class="st1" d="M32.9,160H81L65.1,6.3c-0.4-3.6-3.4-6.3-7-6.3H24.7c-3.9,0-7,3.1-7,7
					c0,0.2,0,0.5,0,0.7L32.9,160L32.9,160z"/>
				<path id="Rectangle-Copy-9_3_" class="st2" d="M81,160L65.1,6.3c-0.4-3.6-3.4-6.3-7-6.3H27.3c-3.9,0-7,3.1-7,7
					c0,0.9,0.2,1.8,0.5,2.6L81,160L81,160z"/>
			</g>
			<g id="Group_1_" transform="translate(0.000000, 32.000000)">
				<path id="Rectangle-Copy-3_3_" class="st0" d="M27.8,0h26.5c3.9,0,7,3.1,7,7c0,0.8-0.1,1.5-0.4,2.2L42.7,64l0,0H0L19.3,6.2
					C20.5,2.5,23.9,0,27.8,0z"/>
				<polygon id="Rectangle-Copy-3_4_" class="st0" points="0,80 45.4,80 75,128 32.7,128 				"/>
				<path id="Rectangle-Copy-3_5_" class="st1" d="M33.4,128H77L62.7,6.2c-0.4-3.5-3.4-6.2-7-6.2H26.8c-3.9,0-7,3.1-7,7
					c0,0.3,0,0.5,0,0.8L33.4,128L33.4,128z"/>
				<path id="Rectangle-Copy-3_6_" class="st2" d="M77,128L62.7,6.2c-0.4-3.5-3.4-6.2-7-6.2H26.6c-2.7,0-4.9,2.2-4.9,4.9
					c0,0.7,0.1,1.4,0.4,2L77,128L77,128z"/>
				<path id="Rectangle-Copy-3_7_" class="st2" d="M192,128L177.7,6.2c-0.4-3.5-3.4-6.2-7-6.2h-29.1c-2.7,0-4.9,2.2-4.9,4.9
					c0,0.7,0.1,1.4,0.4,2L192,128L192,128z"/>
			</g>
		</g>
		<path id="ECYSAP" class="st3" d="M319.8,111.4c1.7,0,2.5-0.8,2.5-2.5v-6c0-1.7-0.8-2.5-2.5-2.5h-43.5c-7.6,0-11-4.3-11-16.9V73.4
			c0-11.4,2.9-14.5,11-14.5h43.2c1.7,0,2.5-0.8,2.5-2.5v-6c0-1.6-0.8-2.4-2.5-2.4h-65C236.2,48,224,61.5,224,79.7
			c0,18.4,12.9,31.7,30.5,31.7H319.8z M318.9,82.3c1.6,0,2.4-0.6,2.4-1.7v-7.5c0-1.1-0.8-1.7-2.4-1.7h-44.5c-1.7,0-2.5,0.8-2.5,2.4
			v6c0,1.6,0.8,2.4,2.5,2.4L318.9,82.3L318.9,82.3z M429.8,111.4c1.6,0,2.4-0.8,2.4-2.5v-6c0-1.7-0.8-2.5-2.4-2.5h-41.9
			c-7.6,0-11-4.3-11-16.9V73.4c0-11.4,2.9-14.5,11-14.5h41.6c1.7,0,2.5-0.8,2.5-2.5v-6c0-1.6-0.8-2.4-2.5-2.4h-63.3
			c-18.3,0-30.5,13.5-30.5,31.7c0,18.4,12.9,31.7,30.5,31.7H429.8z M510.2,111.4c1.7,0,2.5-0.8,2.5-2.5V86.2l33.7-35.6
			c0.3-0.3,0.5-0.8,0.5-1.2c0-0.7-0.6-1.4-1.8-1.4h-5.4c-1.9,0-2.8,0.4-4.1,1.8L509.8,77l-24.7-27.2c-1.1-1.2-2.5-1.9-4.2-1.9h-37.5
			c-0.9,0-1.9,0.6-1.9,1.5c0,0.6,0.3,1.1,0.8,1.7l33.4,35.6v22.1c0,1.7,0.8,2.5,2.4,2.5L510.2,111.4L510.2,111.4L510.2,111.4z
			 M626.8,111.4c11.9,0,17.9-7.3,17.9-15.6c0-6.8-1.8-11.9-11.3-16.4l-43.7-20.6h50.4c1.7,0,2.5-0.8,2.5-2.5v-6
			c0-1.6-0.8-2.4-2.5-2.4h-68.4c-12,0-18,7.3-18,15.6c0,6.7,1.9,11.8,11.3,16.3l43.8,20.6h-52.2c-1.6,0-2.4,0.8-2.4,2.5v6
			c0,1.7,0.8,2.5,2.4,2.5H626.8z M713.8,111.4c1.7,0,2.5-0.8,2.5-2.5v-6c0-1.7-0.8-2.5-2.5-2.5h-42.2L700,72.3l36,37.3
			c1.2,1.2,2.7,1.9,4.8,1.9h39c1.5,0,2.1-0.7,2.1-1.5c0-0.5-0.2-1.2-0.7-1.8l-57.5-58.4c-1.1-1.1-2.4-1.8-4.1-1.8h-6.1
			c-1.5,0-2.8,0.7-3.9,1.8l-58.3,58.6c-0.6,0.5-0.7,1.1-0.7,1.5c0,0.9,0.7,1.6,1.8,1.6L713.8,111.4L713.8,111.4z M826.5,111.4
			c1.7,0,2.5-0.8,2.5-2.5v-50h19.9c5.9,0,10.5,3,10.5,9.6c0,7.2-4.6,9.6-10.5,9.6H837c-1.6,0-2.4,0.8-2.4,2.5v6
			c0,1.7,0.8,2.5,2.4,2.5h34.7c13.7,0,24.2-6.9,24.2-20.2c0-13.2-9.6-20.8-21.8-20.8h-79.5c-1.6,0-2.4,0.8-2.4,2.4V109
			c0,1.7,0.8,2.5,2.4,2.5L826.5,111.4L826.5,111.4z"/>
		<text transform="matrix(1 0 0 1 223 153)" class="st4 st5 st6">European Cyber Situational Awareness Platform</text>
	</g>
</g>
</svg>
