<?xml version="1.0" encoding="utf-8"?>
<!-- Generator: Adobe Illustrator 25.4.1, SVG Export Plug-In . SVG Version: 6.00 Build 0)  -->
<svg version="1.1" id="Capa_1" xmlns="http://www.w3.org/2000/svg" xmlns:xlink="http://www.w3.org/1999/xlink" x="0px" y="0px"
	 viewBox="0 0 75 74" style="enable-background:new 0 0 75 74;" xml:space="preserve">
<style type="text/css">
	.st0{fill:#00FFFF;}
</style>
<g id="_x2D_-">
	<g id="config" transform="translate(8.000000, 7.000000)">
		<path id="Fill-52" class="st0" d="M40.1,29.1c0.5,5.9-3.8,11.1-9.7,11.6c-5.9,0.5-11.1-3.8-11.6-9.7c-0.5-5.9,3.8-11.1,9.7-11.6
			C34.4,18.9,39.6,23.2,40.1,29.1z M14.2,30c0,8.4,6.8,15.3,15.3,15.3S44.8,38.4,44.8,30c0-8.4-6.8-15.3-15.3-15.3
			S14.2,21.6,14.2,30L14.2,30z"/>
		<path id="Fill-53" d="M29.5,47.3c-9.5,0-17.3-7.7-17.3-17.3c0-9.5,7.7-17.3,17.3-17.3S46.8,20.5,46.8,30
			C46.8,39.5,39,47.3,29.5,47.3z M52.8,38.3c0.6,0,1.2-0.5,1.3-1.1l0.8-4c0.1-0.6-0.3-1.3-0.8-1.5l-2.3-1.1c-0.5-0.3-1-0.9-1-1.5
			c0,0,0-0.3-0.1-1c0-0.2,0-0.2,0-0.2c0-0.3,0.3-0.7,0.8-1l2.1-1.3c0.5-0.3,0.8-1,0.6-1.6l-1.3-3.8c-0.2-0.5-0.9-1-1.4-0.9l-2.5,0.2
			c-0.6,0-1.3-0.3-1.5-0.7c-0.3-0.4-0.8-1.9-0.5-2.5l1.2-2.2c0.3-0.5,0.2-1.3-0.3-1.7l-3-2.7c-0.5-0.4-1.2-0.4-1.7-0.1l-2.1,1.4
			c-0.5,0.3-1.2,0.4-1.7,0.2s-1.7-1.3-1.7-1.9l-0.1-2.5c0-0.6-0.5-1.2-1.1-1.3l-4-0.8c-0.6-0.1-1.3,0.3-1.5,0.8l-1.1,2.3
			c-0.3,0.5-0.9,1-1.5,1c0,0-0.3,0-1,0.1c-0.2,0-0.2,0-0.2,0c-0.3,0-0.7-0.3-1-0.8L25,5.7c-0.3-0.5-1-0.8-1.6-0.6l-3.8,1.3
			c-0.5,0.2-1,0.9-0.9,1.4l0.2,2.5c0,0.6-0.3,1.3-0.7,1.5c-0.4,0.3-1.9,0.8-2.4,0.5l-2.2-1.2c-0.5-0.3-1.3-0.2-1.7,0.3l-2.7,3
			c-0.4,0.5-0.4,1.2-0.1,1.7l1.4,2.1c0.3,0.5,0.4,1.2,0.2,1.7c-0.2,0.4-1.3,1.7-1.9,1.7l-2.5,0.1c-0.6,0-1.2,0.5-1.3,1.1l-0.8,4
			C4,27.3,4.4,28,4.9,28.3l2.3,1.1c0.5,0.3,1,0.9,1,1.5c0,0,0,0.3,0.1,1c0,0.2,0,0.2,0,0.2c0,0.3-0.3,0.7-0.8,1l-2.1,1.3
			c-0.5,0.3-0.8,1-0.6,1.6l1.3,3.8c0.2,0.5,0.9,1,1.4,0.9l2.5-0.2c0.6,0,1.3,0.3,1.5,0.7c0.3,0.4,0.8,1.9,0.5,2.5L10.7,46
			c-0.3,0.5-0.2,1.3,0.3,1.7l3,2.7c0.5,0.4,1.2,0.4,1.7,0.1l2.1-1.4c0.5-0.3,1.2-0.4,1.7-0.2c0.4,0.2,1.7,1.3,1.7,1.9l0.1,2.5
			c0,0.6,0.5,1.2,1.1,1.3l4,0.8c0.6,0.1,1.3-0.3,1.5-0.8l1.1-2.3c0.3-0.5,0.9-1,1.5-1c0,0,0.3,0,1-0.1c0.2,0,0.2,0,0.2,0
			c0.3,0,0.7,0.3,1,0.8l1.3,2.1c0.3,0.5,1,0.8,1.6,0.6l3.8-1.3c0.5-0.2,1-0.9,0.9-1.4l-0.2-2.5c0-0.6,0.3-1.3,0.7-1.5
			c0.4-0.3,1.9-0.8,2.5-0.5l2.2,1.2c0.5,0.3,1.3,0.2,1.7-0.3l2.7-3c0.4-0.5,0.4-1.2,0.1-1.7l-1.4-2.1c-0.3-0.5-0.4-1.2-0.2-1.7
			c0.2-0.4,1.3-1.7,1.9-1.7L52.8,38.3z"/>
	</g>
</g>
</svg>
