<?xml version="1.0" encoding="UTF-8"?><svg id="Capa_2" xmlns="http://www.w3.org/2000/svg" viewBox="0 0 429.19 59.04"><defs><style>.cls-1{fill:#fff;}.cls-2{fill:#72c9e2;}</style></defs><g id="Capa_1-2"><path class="cls-1" d="M80.13,44.74V14.82h32.81v5.44h-26.11v6.61h23.69v5.44h-23.69v6.99h26.11v5.44h-32.81Z"/><path class="cls-1" d="M132.94,44.95c-5.52,0-9.75-1.28-12.68-3.83s-4.39-6.34-4.39-11.36,1.47-8.77,4.39-11.34c2.93-2.57,7.16-3.84,12.68-3.81l15.06.08v5.36h-14.61c-3.63,0-6.32.77-8.08,2.3s-2.64,4-2.64,7.41.88,5.88,2.64,7.43c1.76,1.55,4.45,2.32,8.08,2.32h15.02v5.44h-15.48Z"/><path class="cls-1" d="M165.54,44.74v-10.67l-15.86-19.25h8.29l10.92,13.56,10.88-13.56h8.29l-15.78,19.21v10.71h-6.74Z"/><path class="cls-1" d="M190.02,44.95v-5.44l24.06.04c1.23,0,2.17-.29,2.83-.86.65-.57.98-1.5.98-2.78s-.33-2.21-.98-2.78c-.66-.57-1.6-.86-2.83-.86h-14.98c-3.1,0-5.5-.75-7.22-2.24s-2.57-3.69-2.57-6.59.86-5.1,2.57-6.59c1.72-1.49,4.12-2.24,7.22-2.24h23.52v5.44l-22.81-.04c-1.2,0-2.13.27-2.8.82s-1,1.42-1,2.62.34,2.07,1,2.62,1.6.82,2.8.82h14.98c3.1,0,5.5.76,7.22,2.28s2.57,3.77,2.57,6.76-.86,5.2-2.57,6.74-4.12,2.3-7.22,2.3h-24.77Z"/><path class="cls-1" d="M226.27,44.74l13.48-29.92h10.34l13.48,29.92h-7.28l-2.85-6.32h-17.03l-2.85,6.32h-7.28ZM238.82,32.98h12.18l-5.82-12.93h-.54l-5.82,12.93Z"/><path class="cls-1" d="M266.9,44.74V14.82h25.07c3.1,0,5.5.78,7.22,2.34s2.57,3.93,2.57,7.11-.86,5.55-2.57,7.12-4.12,2.34-7.22,2.34h-18.37v11.01h-6.7ZM291.18,20.26h-17.58v7.99l17.58.04c1.23,0,2.17-.31,2.83-.92.65-.61.98-1.65.98-3.1s-.33-2.52-.98-3.12c-.66-.6-1.6-.9-2.83-.9Z"/><path class="cls-1" d="M320.6,44.74V14.82h32.81v5.44h-26.11v6.61h23.69v5.44h-23.69v6.99h26.11v5.44h-32.81Z"/><path class="cls-1" d="M370.94,44.74v-10.67l-15.86-19.25h8.29l10.92,13.56,10.88-13.56h8.29l-15.78,19.21v10.71h-6.74Z"/><path class="cls-1" d="M396.38,44.74V14.82h32.81v5.44h-26.11v6.61h23.69v5.44h-23.69v6.99h26.11v5.44h-32.81Z"/><path class="cls-2" d="M40.94,29.52c0,6.39-5.21,11.59-11.59,11.59s-11.58-5.2-11.58-11.59,5.19-11.58,11.58-11.58,11.59,5.19,11.59,11.58Z"/><circle cx="29.34" cy="29.53" r="6.28"/><path class="cls-1" d="M54.81,26.84c-1.21-11.87-10.75-21.4-22.64-22.64V0h-5.35v4.2C14.97,5.42,5.4,14.97,4.2,26.84H0v5.35h4.2c1.23,11.83,10.75,21.38,22.62,22.6v4.25h5.35v-4.25c11.87-1.23,21.41-10.77,22.64-22.6h3.9v-5.35h-3.9ZM50.13,32.19c-1.19,9.38-8.56,16.75-17.96,17.94v-3.25h-5.35v3.25c-9.4-1.21-16.77-8.56-17.96-17.94h3.29v-5.35h-3.29c1.19-9.43,8.56-16.81,17.96-17.98v3.29h5.35v-3.29c9.42,1.17,16.77,8.54,17.96,17.98h-3.57v5.35h3.57Z"/></g></svg>