<?xml version="1.0" encoding="UTF-8"?>
<svg id="Capa_1" data-name="Capa 1" xmlns="http://www.w3.org/2000/svg" viewBox="0 0 48 48">
  <defs>
    <style>
      .cls-1, .cls-2, .cls-3 {
        fill-rule: evenodd;
      }

      .cls-2 {
        fill: #020202;
      }

      .cls-3 {
        fill: #85f1ff;
      }
    </style>
  </defs>
  <path class="cls-2" d="M42.65,25.91c.05,1.93-.34,3.83-1.07,5.64-.08-.04-.17-.05-.26-.05h-13.04c-.38-.01-.69.3-.69.68v3.41c-.37.12-.7.33-.98.6-.44.45-.72,1.07-.72,1.75s.26,1.27.68,1.72l.04.04c.45.45,1.07.73,1.76.73s1.3-.28,1.75-.73.72-1.07.72-1.75-.27-1.31-.72-1.75c-.32-.32-.71-.55-1.16-.66v-2.67h12.02c-3.21,6.33-10.52,11.31-16.98,12.55-5.3-1.02-11.17-4.55-14.88-9.29h3.99c.11.39.32.74.59,1.02l.04.05c.45.45,1.07.72,1.75.72s1.31-.27,1.76-.72c.44-.45.72-1.07.72-1.76s-.28-1.3-.72-1.75c-.45-.45-1.07-.72-1.76-.72s-1.3.27-1.75.72c-.29.3-.51.66-.63,1.07h-4.24c-.23,0-.43.11-.56.28-.9-1.32-1.63-2.71-2.14-4.16h12.99c.12.41.34.77.63,1.07.45.45,1.07.73,1.75.73s1.31-.28,1.76-.73c.45-.45.72-1.07.72-1.75s-.27-1.3-.72-1.75c-.45-.45-1.07-.73-1.76-.73s-1.3.28-1.75.73c-.29.29-.51.65-.63,1.06H5.94c-.06,0-.12.01-.18.02-.3-1.19-.44-2.4-.41-3.63l.02-.44s.11.02.16.02h26.56c.12.39.32.74.59,1.02l.04.05c.45.45,1.07.72,1.76.72s1.3-.27,1.75-.72c.45-.45.72-1.07.72-1.75s-.27-1.31-.72-1.76c-.45-.44-1.07-.72-1.75-.72s-1.31.28-1.76.72c-.29.3-.51.66-.63,1.07H5.53c-.05,0-.09.01-.13.01.03-1.27.05-2.54.06-3.81l18.59.03c.38,0,.69-.31.69-.69l-.06-8.9c.41-.12.77-.34,1.06-.63.45-.45.73-1.07.73-1.75s-.28-1.31-.73-1.75c-.44-.45-1.07-.73-1.75-.73s-1.3.28-1.75.73c-.45.44-.73,1.07-.73,1.75s.27,1.26.69,1.71l.04.04c.29.29.66.51,1.07.63l.06,8.22-17.89-.03c0-1.34,0-2.68,0-4.02h7.61c.11.38.32.73.59,1.02l.04.04c.45.45,1.07.73,1.75.73s1.31-.28,1.75-.73c.45-.45.73-1.07.73-1.75s-.28-1.3-.73-1.75c-.44-.45-1.06-.73-1.75-.73s-1.3.28-1.75.73c-.29.29-.51.66-.63,1.07h-7.62c-.02-1.39-.05-2.78-.08-4.17,6.64-.52,12.87-2.8,18.62-6.18,5.76,3.38,11.99,5.66,18.63,6.18-.06,2.08-.09,4.17-.1,6.25-.02,0-.03-.01-.05-.01h-7.62c-.12-.4-.34-.77-.63-1.06-.45-.45-1.07-.73-1.76-.73s-1.3.28-1.75.73c-.45.45-.72,1.07-.72,1.75s.27,1.3.72,1.75h0c.45.45,1.07.73,1.75.73s1.31-.28,1.76-.72c.29-.3.51-.66.63-1.07h7.67c-.01,2.97.04,5.94.12,8.91Z"/>
  <path class="cls-2" d="M42.65,25.91c.05,1.93-.34,3.83-1.07,5.64-.08-.04-.17-.05-.26-.05h-13.04c-.38-.01-.69.3-.69.68v3.41c-.37.12-.7.33-.98.6-.44.45-.72,1.07-.72,1.75s.26,1.27.68,1.72l.04.04c.45.45,1.07.73,1.76.73s1.3-.28,1.75-.73.72-1.07.72-1.75-.27-1.31-.72-1.75c-.32-.32-.71-.55-1.16-.66v-2.67h12.02c-3.21,6.33-10.52,11.31-16.98,12.55-5.3-1.02-11.17-4.55-14.88-9.29h3.99c.11.39.32.74.59,1.02l.04.05c.45.45,1.07.72,1.75.72s1.31-.27,1.76-.72c.44-.45.72-1.07.72-1.76s-.28-1.3-.72-1.75c-.45-.45-1.07-.72-1.76-.72s-1.3.27-1.75.72c-.29.3-.51.66-.63,1.07h-4.24c-.23,0-.43.11-.56.28-.9-1.32-1.63-2.71-2.14-4.16h12.99c.12.41.34.77.63,1.07.45.45,1.07.73,1.75.73s1.31-.28,1.76-.73c.45-.45.72-1.07.72-1.75s-.27-1.3-.72-1.75c-.45-.45-1.07-.73-1.76-.73s-1.3.28-1.75.73c-.29.29-.51.65-.63,1.06H5.94c-.06,0-.12.01-.18.02-.3-1.19-.44-2.4-.41-3.63l.02-.44s.11.02.16.02h26.56c.12.39.32.74.59,1.02l.04.05c.45.45,1.07.72,1.76.72s1.3-.27,1.75-.72c.45-.45.72-1.07.72-1.75s-.27-1.31-.72-1.76c-.45-.44-1.07-.72-1.75-.72s-1.31.28-1.76.72c-.29.3-.51.66-.63,1.07H5.53c-.05,0-.09.01-.13.01.03-1.27.05-2.54.06-3.81l18.59.03c.38,0,.69-.31.69-.69l-.06-8.9c.41-.12.77-.34,1.06-.63.45-.45.73-1.07.73-1.75s-.28-1.31-.73-1.75c-.44-.45-1.07-.73-1.75-.73s-1.3.28-1.75.73c-.45.44-.73,1.07-.73,1.75s.27,1.26.69,1.71l.04.04c.29.29.66.51,1.07.63l.06,8.22-17.89-.03c0-1.34,0-2.68,0-4.02h7.61c.11.38.32.73.59,1.02l.04.04c.45.45,1.07.73,1.75.73s1.31-.28,1.75-.73c.45-.45.73-1.07.73-1.75s-.28-1.3-.73-1.75c-.44-.45-1.06-.73-1.75-.73s-1.3.28-1.75.73c-.29.29-.51.66-.63,1.07h-7.62c-.02-1.39-.05-2.78-.08-4.17,6.64-.52,12.87-2.8,18.62-6.18,5.76,3.38,11.99,5.66,18.63,6.18-.06,2.08-.09,4.17-.1,6.25-.02,0-.03-.01-.05-.01h-7.62c-.12-.4-.34-.77-.63-1.06-.45-.45-1.07-.73-1.76-.73s-1.3.28-1.75.73c-.45.45-.72,1.07-.72,1.75s.27,1.3.72,1.75h0c.45.45,1.07.73,1.75.73s1.31-.28,1.76-.72c.29-.3.51-.66.63-1.07h7.67c-.01,2.97.04,5.94.12,8.91Z"/>
  <path class="cls-2" d="M45.15,9.43l.06-2.38-2.39-.19c-6.26-.49-12.15-2.68-17.54-5.85l-1.28-.74-1.27.75c-5.4,3.17-11.28,5.35-17.55,5.84l-2.38.19.06,2.38c.14,5.47.13,10.94-.03,16.4-.3,10.75,10.83,20.17,20.69,22.06l.48.09.48-.09c9.86-1.89,20.99-11.3,20.69-22.06-.16-5.47-.16-10.93-.02-16.4ZM43.89,25.86c.29,10.11-10.42,19.01-19.66,20.78l-.24.04-.23-.04c-9.24-1.77-19.94-10.67-19.66-20.78.16-5.49.16-10.98.02-16.47l-.03-1.18,1.19-.09c6.46-.51,12.52-2.74,18.09-6.02l.63-.37.63.38c5.57,3.27,11.63,5.51,18.09,6.01l1.18.09-.03,1.18c-.14,5.49-.13,10.98.02,16.47Z"/>
  <path class="cls-1" d="M43.87,9.39l.03-1.18-1.18-.09c-6.46-.5-12.52-2.74-18.09-6.01l-.63-.38-.63.37c-5.57,3.28-11.63,5.51-18.09,6.02l-1.19.09.03,1.18c.14,5.49.14,10.98-.02,16.47-.28,10.11,10.42,19.01,19.66,20.78l.23.04.24-.04c9.24-1.77,19.95-10.67,19.66-20.78-.15-5.49-.16-10.98-.02-16.47ZM41.58,31.55c-.08-.04-.17-.05-.26-.05h-13.04c-.38-.01-.69.3-.69.68v3.41c-.37.12-.7.33-.98.6-.44.45-.72,1.07-.72,1.75s.26,1.27.68,1.72l.04.04c.45.45,1.07.73,1.76.73s1.3-.28,1.75-.73.72-1.07.72-1.75-.27-1.31-.72-1.75c-.32-.32-.71-.55-1.16-.66v-2.67h12.02c-3.21,6.33-10.52,11.31-16.98,12.55-5.3-1.02-11.17-4.55-14.88-9.29h3.99c.11.39.32.74.59,1.02l.04.05c.45.45,1.07.72,1.75.72s1.31-.27,1.76-.72c.44-.45.72-1.07.72-1.76s-.28-1.3-.72-1.75c-.45-.45-1.07-.72-1.76-.72s-1.3.27-1.75.72c-.29.3-.51.66-.63,1.07h-4.24c-.23,0-.43.11-.56.28-.9-1.32-1.63-2.71-2.14-4.16h12.99c.12.41.34.77.63,1.07.45.45,1.07.73,1.75.73s1.31-.28,1.76-.73c.45-.45.72-1.07.72-1.75s-.27-1.3-.72-1.75c-.45-.45-1.07-.73-1.76-.73s-1.3.28-1.75.73c-.29.29-.51.65-.63,1.06H5.94c-.06,0-.12.01-.18.02-.3-1.19-.44-2.4-.41-3.63l.02-.44s.11.02.16.02h26.56c.12.39.32.74.59,1.02l.04.05c.45.45,1.07.72,1.76.72s1.3-.27,1.75-.72c.45-.45.72-1.07.72-1.75s-.27-1.31-.72-1.76c-.45-.44-1.07-.72-1.75-.72s-1.31.28-1.76.72c-.29.3-.51.66-.63,1.07H5.53c-.05,0-.09.01-.13.01.03-1.27.05-2.54.06-3.81l18.59.03c.38,0,.69-.31.69-.69l-.06-8.9c.41-.12.77-.34,1.06-.63.45-.45.73-1.07.73-1.75s-.28-1.31-.73-1.75c-.44-.45-1.07-.73-1.75-.73s-1.3.28-1.75.73c-.45.44-.73,1.07-.73,1.75s.27,1.26.69,1.71l.04.04c.29.29.66.51,1.07.63l.06,8.22-17.89-.03c0-1.34,0-2.68,0-4.02h7.61c.11.38.32.73.59,1.02l.04.04c.45.45,1.07.73,1.75.73s1.31-.28,1.75-.73c.45-.45.73-1.07.73-1.75s-.28-1.3-.73-1.75c-.44-.45-1.06-.73-1.75-.73s-1.3.28-1.75.73c-.29.29-.51.66-.63,1.07h-7.62c-.02-1.39-.05-2.78-.08-4.17,6.64-.52,12.87-2.8,18.62-6.18,5.76,3.38,11.99,5.66,18.63,6.18-.06,2.08-.09,4.17-.1,6.25-.02,0-.03-.01-.05-.01h-7.62c-.12-.4-.34-.77-.63-1.06-.45-.45-1.07-.73-1.76-.73s-1.3.28-1.75.73c-.45.45-.72,1.07-.72,1.75s.27,1.3.72,1.75h0c.45.45,1.07.73,1.75.73s1.31-.28,1.76-.72c.29-.3.51-.66.63-1.07h7.67c-.01,2.97.04,5.94.12,8.91.05,1.93-.34,3.83-1.07,5.64ZM28.37,36.84c.3,0,.58.12.78.32.2.2.32.48.32.78s-.12.58-.32.78c-.2.2-.48.33-.78.33s-.58-.13-.78-.33l-.03-.02c-.18-.2-.3-.47-.3-.76s.13-.58.33-.78c.2-.2.47-.32.78-.32ZM14.39,35.44c0-.3.12-.58.32-.78.2-.2.48-.32.78-.32s.58.12.78.32c.2.2.33.48.32.78,0,.31-.12.58-.32.78-.2.2-.47.33-.78.33s-.58-.13-.78-.33l-.03-.02c-.18-.2-.29-.47-.29-.76ZM20.44,30.19c0-.3.13-.58.33-.77.19-.2.47-.33.77-.33s.58.13.78.32c.2.2.32.48.32.78s-.12.58-.32.78c-.2.2-.47.33-.78.33s-.58-.13-.78-.33c-.2-.19-.32-.47-.32-.78ZM33.37,24.8c0-.31.13-.58.33-.78.2-.2.47-.33.78-.33s.57.13.77.33c.2.2.33.47.33.78s-.13.58-.33.78c-.2.2-.47.32-.77.32s-.59-.12-.78-.32l-.03-.03c-.19-.2-.3-.46-.3-.75ZM23.99,9.47c-.3,0-.58-.12-.78-.32l-.03-.03c-.18-.2-.3-.46-.3-.76s.13-.58.33-.78c.2-.2.47-.32.78-.32s.58.13.78.32c.2.2.32.48.32.79s-.12.58-.32.78c-.2.2-.48.32-.78.32ZM14.36,14.22c0-.3.12-.58.32-.78s.48-.32.78-.32.58.12.78.32c.2.2.32.48.32.78s-.12.58-.32.78c-.2.2-.48.33-.78.33s-.58-.13-.78-.33l-.03-.02c-.18-.2-.29-.47-.29-.76ZM33.57,16.3c0,.31-.12.58-.32.78-.2.2-.47.33-.78.33s-.58-.13-.78-.32c-.2-.2-.32-.48-.32-.79s.12-.58.32-.78c.2-.19.48-.32.78-.32s.58.12.78.32c.2.2.32.48.32.78Z"/>
  <path class="cls-3" d="M42.65,25.91c.05,1.93-.34,3.83-1.07,5.64-.08-.04-.17-.05-.26-.05h-13.04c-.38-.01-.69.3-.69.68v3.41c-.37.12-.7.33-.98.6-.44.45-.72,1.07-.72,1.75s.26,1.27.68,1.72l.04.04c.45.45,1.07.73,1.76.73s1.3-.28,1.75-.73.72-1.07.72-1.75-.27-1.31-.72-1.75c-.32-.32-.71-.55-1.16-.66v-2.67h12.02c-3.21,6.33-10.52,11.31-16.98,12.55-5.3-1.02-11.17-4.55-14.88-9.29h3.99c.11.39.32.74.59,1.02l.04.05c.45.45,1.07.72,1.75.72s1.31-.27,1.76-.72c.44-.45.72-1.07.72-1.76s-.28-1.3-.72-1.75c-.45-.45-1.07-.72-1.76-.72s-1.3.27-1.75.72c-.29.3-.51.66-.63,1.07h-4.24c-.23,0-.43.11-.56.28-.9-1.32-1.63-2.71-2.14-4.16h12.99c.12.41.34.77.63,1.07.45.45,1.07.73,1.75.73s1.31-.28,1.76-.73c.45-.45.72-1.07.72-1.75s-.27-1.3-.72-1.75c-.45-.45-1.07-.73-1.76-.73s-1.3.28-1.75.73c-.29.29-.51.65-.63,1.06H5.94c-.06,0-.12.01-.18.02-.3-1.19-.44-2.4-.41-3.63l.02-.44s.11.02.16.02h26.56c.12.39.32.74.59,1.02l.04.05c.45.45,1.07.72,1.76.72s1.3-.27,1.75-.72c.45-.45.72-1.07.72-1.75s-.27-1.31-.72-1.76c-.45-.44-1.07-.72-1.75-.72s-1.31.28-1.76.72c-.29.3-.51.66-.63,1.07H5.53c-.05,0-.09.01-.13.01.03-1.27.05-2.54.06-3.81l18.59.03c.38,0,.69-.31.69-.69l-.06-8.9c.41-.12.77-.34,1.06-.63.45-.45.73-1.07.73-1.75s-.28-1.31-.73-1.75c-.44-.45-1.07-.73-1.75-.73s-1.3.28-1.75.73c-.45.44-.73,1.07-.73,1.75s.27,1.26.69,1.71l.04.04c.29.29.66.51,1.07.63l.06,8.22-17.89-.03c0-1.34,0-2.68,0-4.02h7.61c.11.38.32.73.59,1.02l.04.04c.45.45,1.07.73,1.75.73s1.31-.28,1.75-.73c.45-.45.73-1.07.73-1.75s-.28-1.3-.73-1.75c-.44-.45-1.06-.73-1.75-.73s-1.3.28-1.75.73c-.29.29-.51.66-.63,1.07h-7.62c-.02-1.39-.05-2.78-.08-4.17,6.64-.52,12.87-2.8,18.62-6.18,5.76,3.38,11.99,5.66,18.63,6.18-.06,2.08-.09,4.17-.1,6.25-.02,0-.03-.01-.05-.01h-7.62c-.12-.4-.34-.77-.63-1.06-.45-.45-1.07-.73-1.76-.73s-1.3.28-1.75.73c-.45.45-.72,1.07-.72,1.75s.27,1.3.72,1.75h0c.45.45,1.07.73,1.75.73s1.31-.28,1.76-.72c.29-.3.51-.66.63-1.07h7.67c-.01,2.97.04,5.94.12,8.91Z"/>
  <path class="cls-1" d="M22.64,30.19c0,.3-.12.58-.32.78-.2.2-.47.33-.78.33s-.58-.13-.78-.33c-.2-.19-.32-.47-.32-.78s.13-.58.33-.77c.19-.2.47-.33.77-.33s.58.13.78.32c.2.2.32.48.32.78Z"/>
  <path class="cls-1" d="M33.57,16.3c0,.31-.12.58-.32.78-.2.2-.47.33-.78.33s-.58-.13-.78-.32c-.2-.2-.32-.48-.32-.79s.12-.58.32-.78c.2-.19.48-.32.78-.32s.58.12.78.32c.2.2.32.48.32.78Z"/>
  <path class="cls-1" d="M16.59,35.44c0,.31-.12.58-.32.78-.2.2-.47.33-.78.33s-.58-.13-.78-.33l-.03-.02c-.18-.2-.29-.47-.29-.76s.12-.58.32-.78c.2-.2.48-.32.78-.32s.58.12.78.32c.2.2.33.48.32.78Z"/>
  <path class="cls-1" d="M29.47,37.94c0,.31-.12.58-.32.78-.2.2-.48.33-.78.33s-.58-.13-.78-.33l-.03-.02c-.18-.2-.3-.47-.3-.76s.13-.58.33-.78c.2-.2.47-.32.78-.32s.58.12.78.32c.2.2.32.48.32.78Z"/>
  <path class="cls-1" d="M35.58,24.8c0,.3-.13.58-.33.78-.2.2-.47.32-.77.32s-.59-.12-.78-.32l-.03-.03c-.19-.2-.3-.46-.3-.75,0-.31.13-.58.33-.78.2-.2.47-.33.78-.33s.57.13.77.33c.2.2.33.47.33.78Z"/>
  <path class="cls-1" d="M25.09,8.37c0,.3-.12.58-.32.78-.2.2-.48.32-.78.32s-.58-.12-.78-.32l-.03-.03c-.18-.2-.3-.46-.3-.76s.13-.58.33-.78c.2-.2.47-.32.78-.32s.58.13.78.32c.2.2.32.48.32.79Z"/>
  <path class="cls-1" d="M16.56,14.22c0,.31-.12.58-.32.78-.2.2-.48.33-.78.33s-.58-.13-.78-.33l-.03-.02c-.18-.2-.29-.47-.29-.76s.12-.58.32-.78.48-.32.78-.32.58.12.78.32c.2.2.32.48.32.78Z"/>
</svg>