<?xml version="1.0" encoding="UTF-8"?>
<svg id="Capa_1" data-name="Capa 1" xmlns="http://www.w3.org/2000/svg" viewBox="0 0 48 48">
  <defs>
    <style>
      .cls-1 {
        fill: #85f1ff;
      }

      .cls-2 {
        fill: #020202;
      }
    </style>
  </defs>
  <path class="cls-2" d="M16.84,36.88v3.52c0,.29-.15.56-.39.73l-4.41,2.91c.1.31.15.63.15.98,0,1.76-1.43,3.19-3.19,3.19s-3.19-1.43-3.19-3.19,1.43-3.19,3.19-3.19c.79,0,1.52.29,2.07.77l4.02-2.65v-3.05c0-.48.39-.87.87-.87s.87.39.87.87h0Z"/>
  <path class="cls-2" d="M31.85,34.01c-.65.65-1.71.65-2.36,0l-.83-.83c-.44.22-.9.41-1.37.57v1.17c0,.92-.75,1.67-1.67,1.67h-3.05c-.92,0-1.67-.75-1.67-1.67v-1.17c-.47-.16-.93-.35-1.37-.57l-.83.83c-.65.65-1.71.65-2.36,0l-2.16-2.16c-.31-.31-.49-.73-.49-1.18s.17-.86.49-1.18l.83-.83c-.22-.44-.41-.89-.57-1.37h-1.17c-.92,0-1.67-.75-1.67-1.67v-3.06c0-.92.75-1.67,1.67-1.67h1.17c.16-.47.35-.93.57-1.37l-.83-.83c-.65-.65-.65-1.71,0-2.36l2.16-2.16c.65-.65,1.71-.65,2.36,0l.83.83c.44-.22.89-.41,1.37-.57v-1.17c0-.92.75-1.67,1.67-1.67h3.05c.92,0,1.67.75,1.67,1.67v1.17c.47.16.93.35,1.37.57l.83-.83c.65-.65,1.71-.65,2.36,0l2.16,2.16c.65.65.65,1.71,0,2.36l-.83.83c.22.44.41.9.57,1.37h1.17c.92,0,1.67.75,1.67,1.67v3.06c0,.92-.75,1.67-1.67,1.67h-1.17c-.16.47-.35.93-.57,1.37l.83.83c.31.31.49.73.49,1.18s-.17.86-.49,1.18l-2.15,2.16Z"/>
  <path class="cls-1" d="M30.67,32.73l2.06-2.06-.81-.81c-.51-.51-.64-1.28-.31-1.92.2-.4.38-.82.52-1.25.22-.68.85-1.14,1.58-1.14h1.14v-2.9h-1.14c-.73,0-1.36-.46-1.58-1.14-.14-.43-.31-.85-.52-1.25-.32-.64-.2-1.41.31-1.92l.81-.81-2.06-2.06-.81.81c-.52.52-1.29.64-1.93.31-.39-.2-.81-.38-1.24-.52-.68-.22-1.13-.85-1.13-1.58v-1.14h-2.9v1.14c0,.73-.46,1.36-1.13,1.58-.43.14-.85.31-1.24.52-.64.33-1.41.2-1.93-.31l-.81-.81-2.06,2.06.81.81c.52.52.64,1.29.31,1.93-.2.39-.38.81-.52,1.24-.22.68-.85,1.13-1.58,1.13h-1.14v2.9h1.14c.73,0,1.36.46,1.58,1.14.14.43.31.85.52,1.24.33.64.2,1.41-.31,1.93l-.81.81,2.06,2.06.81-.81c.51-.51,1.28-.64,1.92-.31.4.2.82.38,1.25.52.68.22,1.14.85,1.14,1.58v1.14h2.9v-1.14c0-.73.46-1.36,1.14-1.58.43-.14.85-.31,1.25-.52.64-.32,1.41-.2,1.92.31l.81.81Z"/>
  <circle class="cls-2" cx="24.1" cy="24.11" r="4.94"/>
  <path class="cls-2" d="M24.97,41.94v-2.74c0-.48-.39-.87-.87-.87s-.87.39-.87.87v2.74c-1.34.38-2.32,1.61-2.32,3.07,0,1.76,1.43,3.19,3.19,3.19s3.19-1.43,3.19-3.19c0-1.46-.98-2.69-2.32-3.07Z"/>
  <path class="cls-2" d="M39.2,41.82c-.79,0-1.51.29-2.07.77l-4.02-2.68v-3.02c0-.48-.39-.87-.87-.87s-.87.39-.87.87v3.48c0,.29.15.56.39.73l4.41,2.94c-.1.31-.16.64-.16.98,0,1.76,1.43,3.19,3.19,3.19s3.19-1.43,3.19-3.19c0-1.76-1.44-3.2-3.2-3.2h0Z"/>
  <path class="cls-2" d="M45.87,31.48v-3.9c0-.48-.39-.87-.87-.87h-5.81c-.48,0-.87.39-.87.87s.39.87.87.87h4.94v3.03c-1.34.38-2.32,1.61-2.32,3.07,0,1.76,1.43,3.19,3.19,3.19s3.19-1.43,3.19-3.19c0-1.46-.99-2.69-2.32-3.07Z"/>
  <path class="cls-2" d="M44.13,16.72v3.03h-4.94c-.48,0-.87.39-.87.87s.39.87.87.87h5.81c.48,0,.87-.39.87-.87v-3.9c1.34-.38,2.32-1.61,2.32-3.07,0-1.76-1.43-3.19-3.19-3.19s-3.19,1.43-3.19,3.19c0,1.46.98,2.69,2.32,3.07Z"/>
  <path class="cls-2" d="M4.06,31.48v-3.03h4.94c.48,0,.87-.39.87-.87s-.39-.87-.87-.87H3.19c-.48,0-.87.39-.87.87v3.9C.99,31.87,0,33.09,0,34.56,0,36.32,1.43,37.75,3.19,37.75s3.19-1.43,3.19-3.19c0-1.46-.99-2.69-2.32-3.07Z"/>
  <path class="cls-2" d="M2.32,16.72v3.9c0,.48.39.87.87.87h5.81c.48,0,.87-.39.87-.87s-.39-.87-.87-.87h-4.94v-3.03c1.34-.38,2.32-1.61,2.32-3.07,0-1.76-1.43-3.19-3.19-3.19S0,11.89,0,13.65C0,15.11.98,16.34,2.32,16.72Z"/>
  <path class="cls-2" d="M32.23,12.2c.48,0,.87-.39.87-.87v-3.02l4.02-2.68c.56.48,1.28.77,2.07.77,1.76,0,3.19-1.43,3.19-3.19S40.96,0,39.2,0s-3.19,1.43-3.19,3.19c0,.34.06.67.16.98l-4.41,2.94c-.24.16-.39.44-.39.73v3.48c0,.47.39.86.87.86h0Z"/>
  <path class="cls-2" d="M9,6.43c.79,0,1.52-.29,2.07-.77l4.02,2.65v3.01c0,.48.39.87.87.87s.87-.39.87-.87v-3.48c0-.29-.15-.56-.39-.73l-4.41-2.91c.1-.31.15-.63.15-.98C12.19,1.47,10.76.04,9,.04s-3.19,1.43-3.19,3.19,1.43,3.19,3.19,3.19h0Z"/>
  <path class="cls-2" d="M23.23,6.27v2.74c0,.48.39.87.87.87s.87-.39.87-.87v-2.74c1.34-.38,2.32-1.61,2.32-3.07,0-1.76-1.43-3.19-3.19-3.19s-3.19,1.43-3.19,3.19c0,1.46.99,2.69,2.32,3.07Z"/>
</svg>