<?xml version="1.0" encoding="UTF-8"?>
<svg id="Capa_1" data-name="Capa 1" xmlns="http://www.w3.org/2000/svg" viewBox="0 0 48 48">
  <defs>
    <style>
      .cls-1 {
        fill: #9ff;
      }

      .cls-1, .cls-2 {
        fill-rule: evenodd;
      }
    </style>
  </defs>
  <path class="cls-2" d="M25.36,7.57l-.72-4.44c-.01-.09-.08-.15-.17-.17-1.81-.23-3.65-.23-5.46,0-.09.01-.16.08-.17.17l-.72,4.44c-2.09.45-4.05,1.27-5.78,2.4l-3.64-2.63c-.07-.05-.17-.05-.24,0-1.44,1.12-2.74,2.42-3.86,3.86-.06.07-.06.17,0,.24l2.63,3.64c-1.13,1.74-1.95,3.69-2.4,5.78l-4.44.72c-.09.01-.15.08-.17.17C-.01,23.57-.01,25.42.21,27.23c.01.09.08.16.17.17l4.44.72c.45,2.09,1.27,4.05,2.4,5.78l-2.63,3.64c-.05.07-.05.17,0,.24,1.12,1.44,2.42,2.74,3.86,3.86.07.06.17.06.24,0l3.64-2.63c1.74,1.13,3.69,1.95,5.78,2.4l.72,4.44c.01.09.08.15.17.17,1.81.23,3.65.23,5.46,0,.09-.01.16-.08.17-.17l.72-4.44c1.59-.34,3.11-.9,4.5-1.64-.25-.82-.36-1.7-.46-2.53-.07-.58-.13-1.16-.17-1.75-2.13,1.46-4.71,2.31-7.49,2.31-7.35,0-13.3-5.96-13.3-13.3s5.96-13.3,13.3-13.3c4.69,0,8.81,2.43,11.18,6.09.95-.93,2.05-1.69,3.35-2.19l2.63-3.64c.05-.07.05-.17,0-.24-1.12-1.44-2.42-2.74-3.86-3.86-.07-.06-.17-.06-.24,0l-3.64,2.63c-1.74-1.13-3.69-1.95-5.78-2.4h0Z"/>
  <g>
    <path class="cls-1" d="M21.74,35.03c-1.42,0-2.79-.27-4.09-.8-1.04-.43-2-1.01-2.86-1.75.38-1.37,1.18-2.62,2.27-3.55,1.3-1.11,2.96-1.72,4.67-1.72s3.37.61,4.67,1.72c.73.62,1.33,1.39,1.76,2.24v.48c.02.4.03.81.04,1.21-.73.56-1.54,1.02-2.39,1.37-1.29.53-2.67.8-4.09.8Z"/>
    <path d="M21.74,28.08c1.51,0,2.96.54,4.1,1.51.59.5,1.09,1.12,1.46,1.8v.28c0,.25.02.5.02.75-.57.4-1.19.73-1.83,1-1.19.49-2.45.74-3.75.74s-2.57-.25-3.75-.74c-.78-.32-1.5-.74-2.17-1.24.38-.99,1-1.89,1.82-2.59,1.14-.97,2.6-1.51,4.1-1.51M21.74,26.33c-2,0-3.83.73-5.24,1.93-1.35,1.15-2.31,2.73-2.68,4.52,1.01.95,2.2,1.71,3.5,2.25,1.36.56,2.85.87,4.42.87s3.06-.31,4.42-.87c1.07-.44,2.06-1.04,2.94-1.77-.02-.55-.04-1.09-.05-1.64,0-.22,0-.45-.01-.67-.49-1.04-1.2-1.96-2.07-2.7-1.41-1.2-3.24-1.93-5.24-1.93h0Z"/>
  </g>
  <g>
    <path class="cls-1" d="M21.57,24.38c-.91,0-1.76-.35-2.4-.99-.64-.64-.99-1.49-.99-2.4s.35-1.76.99-2.4c.64-.64,1.49-.99,2.4-.99s1.76.35,2.4.99c.64.64.99,1.49.99,2.4s-.35,1.76-.99,2.4c-.64.64-1.49.99-2.4.99Z"/>
    <path d="M21.57,18.48c.67,0,1.3.26,1.78.74.47.47.74,1.11.74,1.78s-.26,1.3-.74,1.78c-.47.47-1.11.74-1.78.74s-1.3-.26-1.78-.74c-.47-.47-.74-1.11-.74-1.78s.26-1.3.74-1.78c.48-.47,1.11-.74,1.78-.74M21.57,16.73c-1.18,0-2.24.48-3.01,1.25-.77.77-1.25,1.84-1.25,3.01s.48,2.24,1.25,3.01c.77.77,1.84,1.25,3.01,1.25s2.24-.48,3.01-1.25c.77-.77,1.25-1.84,1.25-3.01s-.48-2.24-1.25-3.01c-.77-.77-1.84-1.25-3.01-1.25h0Z"/>
  </g>
  <path class="cls-2" d="M45.45,27.82s-1.3.09-3.9.27c0,0,1.89,3.75,5.67,11.24-.31,1.17-.71,2.22-1.2,3.16h-12.84c-1.51-1.83-2.13-1.53-2.6-5.38-.34-2.93-.43-7.33-.26-13.19,2.05-5.77,5.6-8.53,10.05-8.26,0,0-.36,1.08-.49,3.25,0,0,2.51,1.76,7.52,5.29l.46,4.92c-.74.55-1.55.12-2.41-1.3Z"/>
  <rect x="33.94" y="43.68" width="11.42" height="2.46"/>
</svg>