<?xml version="1.0" encoding="UTF-8"?>
<svg id="Capa_1" data-name="Capa 1" xmlns="http://www.w3.org/2000/svg" viewBox="0 0 48 48">
  <defs>
    <style>
      .cls-1 {
        fill: #9ff;
      }

      .cls-2 {
        fill: #020202;
      }

      .cls-2, .cls-3 {
        fill-rule: evenodd;
        stroke: #000;
        stroke-miterlimit: 10;
        stroke-width: 2px;
      }

      .cls-3 {
        fill: #85f1ff;
      }
    </style>
  </defs>
  <g>
    <path class="cls-2" d="M44.08,9.74l.06-2.29-2.3-.18c-6.02-.47-11.68-2.58-16.86-5.62l-1.23-.71-1.22.72c-5.19,3.05-10.84,5.14-16.87,5.61l-2.29.18.06,2.29c.13,5.26.12,10.52-.03,15.76-.29,10.33,10.41,19.39,19.89,21.2l.46.09.46-.09c9.48-1.82,20.17-10.86,19.89-21.2-.15-5.26-.15-10.51-.02-15.76ZM42.87,25.53c.28,9.72-10.02,18.27-18.9,19.97l-.23.04-.22-.04c-8.88-1.7-19.17-10.26-18.9-19.97.15-5.28.15-10.55.02-15.83l-.03-1.13,1.14-.09c6.21-.49,12.03-2.63,17.39-5.79l.61-.36.61.37c5.35,3.14,11.18,5.3,17.39,5.78l1.13.09-.03,1.13c-.13,5.28-.12,10.55.02,15.83Z"/>
    <path class="cls-3" d="M42.87,25.53c.28,9.72-10.02,18.27-18.9,19.97l-.23.04-.22-.04c-8.88-1.7-19.17-10.26-18.9-19.97.15-5.28.15-10.55.02-15.83l-.03-1.13,1.14-.09c6.21-.49,12.03-2.63,17.39-5.79l.61-.36.61.37c5.35,3.14,11.18,5.3,17.39,5.78l1.13.09-.03,1.13c-.13,5.28-.12,10.55.02,15.83Z"/>
  </g>
  <g>
    <path d="M25.62,23.71c-.06.04-.12.08-.19.11.2,1.03.75,1.52,1.38,2.09.32.29.65.59.93.97h3.18c.13,0,.28.06.39.17l2.17,2.35h.54c.24-.76.94-1.31,1.77-1.31,1.01,0,1.84.82,1.84,1.84s-.83,1.84-1.84,1.84c-.83,0-1.53-.55-1.77-1.31h-.78c-.13,0-.28-.06-.39-.17l-2.17-2.34h-2.38c.1.35.17.77.17,1.25v.82h.34c.44,0,.79.36.79.81v1.79c0,.45-.35.8-.79.8h-11.29c-.44,0-.8-.35-.8-.8v-1.79c0-.45.36-.81.8-.81h.33v-2.07h-.51l-2.18,2.34c-.1.11-.25.17-.39.17h-.78c-.23.76-.93,1.31-1.76,1.31-1.02,0-1.85-.82-1.85-1.84s.83-1.84,1.85-1.84c.83,0,1.53.55,1.76,1.31h.55l2.18-2.35c.09-.1.24-.17.38-.17h.75v-2.35h-3.86c-.23.76-.93,1.32-1.77,1.32-1.01,0-1.84-.83-1.84-1.84s.83-1.85,1.84-1.85c.84,0,1.54.55,1.77,1.31h3.86v-2.35h-.75c-.14,0-.29-.07-.38-.17l-2.19-2.35h-.54c-.23.76-.93,1.32-1.77,1.32-1.01,0-1.84-.83-1.84-1.85s.83-1.85,1.84-1.85c.84,0,1.54.56,1.77,1.32h.78c.14,0,.29.06.39.16l2.18,2.36h.51v-.18c0-2.92,2.38-5.31,5.3-5.31,1.63,0,3.15.74,4.16,2.03.17.2.17.46,0,.66l-.59.74,2.44,2.06h1.51l2.17-2.36c.11-.1.25-.17.39-.17h.78c.23-.75.94-1.31,1.77-1.31,1.01,0,1.84.83,1.84,1.85s-.83,1.85-1.84,1.85c-.83,0-1.54-.56-1.77-1.32h-.54l-2.18,2.35c-.1.1-.25.17-.38.17h-.47l.66.55c.22.18.25.49.09.72l-.79,1.08h3.61c.23-.76.94-1.31,1.77-1.31,1.01,0,1.84.82,1.84,1.84s-.83,1.85-1.84,1.85c-.83,0-1.53-.56-1.77-1.32h-4.43c-.12.12-.3.15-.47.11l-3.5-.93Z"/>
    <path class="cls-1" d="M25.35,19.08c0,.68-.57,1.24-1.25,1.24s-1.24-.56-1.24-1.24.56-1.25,1.24-1.25,1.25.56,1.25,1.25Z"/>
  </g>
</svg>