<?xml version="1.0" encoding="UTF-8"?>
<svg id="Capa_1" data-name="Capa 1" xmlns="http://www.w3.org/2000/svg" viewBox="0 0 48 48">
  <defs>
    <style>
      .cls-1 {
        fill: #9ff;
      }
    </style>
  </defs>
  <g>
    <path d="M43.07,47.14c2.72,0,4.93-2.21,4.93-4.92,0-2.72-2.21-4.93-4.93-4.93s-4.92,2.21-4.92,4.93c0,2.71,2.21,4.92,4.92,4.92ZM43.07,39.7c1.39,0,2.53,1.13,2.53,2.52s-1.13,2.52-2.53,2.52-2.52-1.13-2.52-2.52,1.13-2.52,2.52-2.52Z"/>
    <path class="cls-1" d="M40.55,42.22c0-1.39,1.13-2.52,2.52-2.52s2.53,1.13,2.53,2.52-1.13,2.52-2.53,2.52-2.52-1.13-2.52-2.52Z"/>
  </g>
  <g>
    <path d="M38.53,35.26c2.72,0,4.93-2.21,4.93-4.92,0-2.72-2.21-4.93-4.93-4.93s-4.92,2.21-4.92,4.93c0,2.71,2.21,4.92,4.92,4.92ZM38.53,27.81c1.39,0,2.53,1.13,2.53,2.52s-1.13,2.52-2.53,2.52-2.52-1.13-2.52-2.52,1.13-2.52,2.52-2.52Z"/>
    <path class="cls-1" d="M36.01,30.33c0-1.39,1.13-2.52,2.52-2.52s2.53,1.13,2.53,2.52-1.13,2.52-2.53,2.52-2.52-1.13-2.52-2.52Z"/>
  </g>
  <g>
    <path d="M43.07,23.37c2.72,0,4.93-2.21,4.93-4.92s-2.21-4.93-4.93-4.93-4.92,2.21-4.92,4.93c0,2.71,2.21,4.92,4.92,4.92ZM43.07,15.92c1.39,0,2.53,1.13,2.53,2.53,0,1.39-1.13,2.52-2.53,2.52s-2.52-1.13-2.52-2.52c0-1.4,1.13-2.53,2.52-2.53Z"/>
    <path class="cls-1" d="M40.55,18.45c0-1.4,1.13-2.53,2.52-2.53s2.53,1.13,2.53,2.53c0,1.39-1.13,2.52-2.53,2.52s-2.52-1.13-2.52-2.52Z"/>
  </g>
  <g>
    <path d="M38.53,11.73c2.72,0,4.93-2.21,4.93-4.93,0-2.71-2.21-4.92-4.93-4.92s-4.92,2.21-4.92,4.92,2.21,4.93,4.92,4.93ZM38.53,4.27c1.39,0,2.53,1.14,2.53,2.52,0,1.4-1.13,2.53-2.53,2.53s-2.52-1.13-2.52-2.53c0-1.39,1.13-2.52,2.52-2.52Z"/>
    <path class="cls-1" d="M36.01,6.8c0-1.39,1.13-2.52,2.52-2.52s2.53,1.14,2.53,2.52c0,1.4-1.13,2.53-2.53,2.53s-2.52-1.13-2.52-2.53Z"/>
  </g>
  <path d="M18.14,13.03c-.19,0-.38,0-.58.02-2.12.13-3.81.89-5.03,2.28-2.16,2.47-1.92,5.98-1.91,6.13.05.66.63,1.16,1.29,1.11.66-.05,1.16-.62,1.11-1.28,0-.05-.16-2.7,1.33-4.39.79-.89,1.88-1.37,3.35-1.46,1.75-.1,3.12.4,4.08,1.49,1.55,1.77,1.69,4.63,1.42,6.02-.24,1.24-1.3,7.64,1.77,11.7,1.39,1.84,3.39,2.89,5.93,3.1.67.06,1.24-.43,1.3-1.09.06-.66-.43-1.24-1.09-1.3-1.87-.16-3.25-.86-4.22-2.16-2.03-2.69-1.79-7.42-1.33-9.79.45-2.28.02-5.78-1.97-8.06-1.34-1.53-3.21-2.33-5.45-2.33Z"/>
  <path d="M25.37,24.41l-2.38.3c.29,2.31,1.29,4.09,2.97,5.31,3.55,2.56,8.86,1.54,9.08,1.5l-.47-2.35.23,1.18-.23-1.18s-4.52.86-7.22-1.09c-1.13-.82-1.78-2.02-1.99-3.65Z"/>
  <path d="M37.92,17.19c-3.27,0-5.66.82-7.11,2.44-1.81,2.03-1.38,4.5-1.36,4.61.12.65.75,1.09,1.4.97.65-.12,1.08-.75.97-1.4,0-.05-.22-1.46.81-2.6,1.13-1.24,3.42-1.78,6.63-1.57.66.05,1.24-.45,1.28-1.12.05-.66-.45-1.24-1.12-1.28-.52-.04-1.02-.05-1.5-.05Z"/>
  <path d="M31.89,11.48c-.12,0-.24.02-.37.06-.63.2-.98.88-.78,1.51.07.21,1.67,5.11,5.24,6.52.61.24,1.31-.06,1.56-.68.24-.62-.06-1.31-.68-1.56-2.08-.82-3.47-3.9-3.83-5.01-.16-.51-.64-.83-1.14-.83Z"/>
  <path d="M21.96,38.02c-.65,0-1.19.52-1.2,1.18-.05,2.71,1.35,8.04,7.01,8.79,2.7.36,6.3-.2,8.37-4.79.84.06,2.19.15,3.13.21.66.06,1.24-.45,1.28-1.11.05-.66-.45-1.24-1.11-1.28-2.54-.18-3.9-.27-4.05-.27-.84,0-1.12.7-1.27,1.08-.75,1.87-2.19,4.29-6.03,3.78-4.97-.66-4.93-6.13-4.92-6.37.01-.66-.52-1.21-1.18-1.22h-.02Z"/>
  <path d="M4.22,23.05c-.24,0-.49.07-.7.23-.15.11-3.63,2.67-2.75,7.28.66,3.49,3.8,4.71,5.5,5.13.06.87.33,2.1,1.17,3.21.92,1.2,2.28,2,4.06,2.36.28,1.36,1.17,3.79,4.01,5.69,4.21,2.81,9.4-.46,9.62-.61.56-.36.72-1.1.36-1.66-.36-.56-1.1-.72-1.66-.36-.06.04-4.11,2.56-6.99.63-2.98-1.99-3.07-4.63-3.07-4.74-.01-.6-.47-1.11-1.06-1.18-1.57-.18-2.7-.72-3.36-1.58-.87-1.15-.69-2.56-.68-2.57.05-.33-.04-.66-.24-.92-.2-.26-.51-.43-.84-.46-.15-.02-3.9-.42-4.46-3.38-.59-3.08,1.7-4.81,1.8-4.88.53-.39.65-1.14.26-1.68-.24-.32-.6-.49-.97-.49Z"/>
  <path d="M29.27.87c-.09,0-.18,0-.27,0-4.12.14-5.34,1.88-5.55,2.23-.34.57-.14,1.31.43,1.64.57.33,1.31.14,1.64-.43h0s.8-.95,3.56-1.04c3.04-.1,5.39,2.35,5.41,2.37.45.48,1.21.51,1.7.06.48-.45.51-1.21.06-1.69-.12-.13-2.96-3.14-6.98-3.14Z"/>
  <path d="M20.17,1.15c-.3,0-.6.01-.92.04-2.79.24-4.87,1.19-6.19,2.85-.99,1.24-1.33,2.61-1.42,3.6-3.11.33-4.64,3.25-5.19,5.47-.99.13-2.5.53-3.73,1.68-1.26,1.18-1.92,2.83-1.96,4.91-.04,1.99.54,3.59,1.75,4.76,2.08,2.02,5.22,1.88,5.35,1.87.66-.03,1.17-.6,1.14-1.26-.04-.66-.59-1.17-1.26-1.14h0s-2.25.08-3.57-1.21c-.71-.69-1.04-1.67-1.01-2.97.03-1.4.43-2.48,1.19-3.19,1.22-1.15,3.04-1.11,3.06-1.11.62,0,1.16-.43,1.24-1.05.03-.19.69-4.75,4.04-4.36.37.04.74-.08,1-.35s.38-.64.33-1.01c0,0-.2-1.77.94-3.17.9-1.1,2.41-1.75,4.5-1.93,1.73-.15,3.13.24,4.15,1.15,1.95,1.73,2.06,4.86,2.06,4.89.02.66.58,1.22,1.23,1.17.66-.02,1.18-.57,1.17-1.23,0-.17-.13-4.17-2.85-6.61-1.34-1.2-3.03-1.8-5.05-1.8Z"/>
  <path d="M12.7,27.82c-.3,0-.59.11-.81.31-.25.23-.39.55-.39.89,0,4.02-3.68,4.43-4.1,4.47-.66.05-1.15.63-1.11,1.29.05.66.61,1.16,1.28,1.11,1.97-.14,5.51-1.46,6.21-5.42,1.42.44,3.54,1.6,3.26,4.64-.06.66.43,1.24,1.09,1.3.65.06,1.24-.43,1.3-1.09.49-5.4-4.12-7.26-6.62-7.49-.04,0-.07,0-.11,0Z"/>
  <path d="M18.26,21.49s-.04,0-.06,0c-.66.03-1.17.6-1.14,1.26h0s.1,2.7-1.35,4.14c-.7.7-1.68,1-2.95.93-.67-.02-1.23.47-1.27,1.13-.04.66.47,1.23,1.13,1.27,1.97.1,3.59-.44,4.78-1.63,2.21-2.21,2.06-5.8,2.05-5.96-.03-.64-.56-1.14-1.2-1.14Z"/>
</svg>