<?xml version="1.0" encoding="UTF-8"?>
<svg id="Capa_1" data-name="Capa 1" xmlns="http://www.w3.org/2000/svg" viewBox="0 0 48 48">
  <defs>
    <style>
      .cls-1, .cls-2 {
        stroke: #000;
        stroke-miterlimit: 10;
        stroke-width: .75px;
      }

      .cls-2 {
        fill: #9ff;
      }
    </style>
  </defs>
  <path class="cls-1" d="M11.94,14.22c3.68-2.19,7.69-3.41,11.9-3.47h.31c3.23,0,6.35.69,9.3,1.97t.02.01c.09.04.19.09.28.13.21,0,.38-.17.38-.39v-.29c-.25-.12-.51-.23-.77-.34-2.9-1.21-5.96-1.86-9.13-1.87h-.08c-.24,0-.47,0-.7.01-3.01.09-5.92.76-8.68,1.93-.27.12-.53.23-.78.35-.83.39-1.64.81-2.44,1.29-4.02,2.38-7.65,5.87-10.72,10.2-.06.07-.09.16-.09.25,0,.07.03.15.08.22,3.06,4.35,6.7,7.84,10.73,10.23.8.48,1.61.9,2.44,1.29.25.12.51.23.78.34,2.76,1.18,5.67,1.84,8.68,1.93.23.01.46.01.7.01h.08c3.17-.01,6.23-.66,9.13-1.87.26-.1.52-.21.77-.33v-.29c0-.22-.17-.39-.38-.39-.09.04-.19.09-.28.13t-.02.01c-2.95,1.28-6.07,1.97-9.3,1.97h-.31c-4.21-.06-8.22-1.28-11.9-3.47-3.86-2.29-7.36-5.63-10.33-9.78,2.97-4.15,6.47-7.5,10.33-9.78Z"/>
  <path class="cls-1" d="M47.48,23.77c-3.08-4.35-6.7-7.84-10.73-10.22-.86-.51-1.73-.97-2.62-1.37v.29c0,.22-.17.39-.38.39-.11,0-.21-.04-.28-.13t-.02-.01c-2.95-1.28-6.07-1.97-9.3-1.97h-.31c-4.21.06-8.22,1.28-11.9,3.47-3.86,2.28-7.36,5.63-10.33,9.78,2.97,4.15,6.47,7.49,10.33,9.78,3.68,2.19,7.69,3.41,11.9,3.47h.31c3.23,0,6.35-.69,9.3-1.97t.02-.01c.07-.09.17-.13.28-.13.21,0,.38.17.38.39v.29c.89-.4,1.76-.86,2.62-1.37,4.02-2.38,7.65-5.87,10.72-10.21.1-.13.12-.32.01-.47ZM32.78,32.63c-2.21,2.2-5.26,3.57-8.63,3.57s-6.42-1.37-8.63-3.57c-2.21-2.21-3.57-5.26-3.57-8.63s1.36-6.42,3.57-8.63c2.21-2.21,5.26-3.57,8.63-3.57s6.42,1.36,8.63,3.57c2.21,2.21,3.57,5.26,3.57,8.63s-1.36,6.42-3.57,8.63Z"/>
  <path class="cls-1" d="M30.95,17.2c-1.74-1.74-4.15-2.82-6.8-2.82s-5.06,1.08-6.8,2.82-2.82,4.14-2.82,6.8,1.08,5.06,2.82,6.8c1.74,1.74,4.14,2.81,6.8,2.81s5.06-1.07,6.8-2.81c1.74-1.74,2.82-4.15,2.82-6.8s-1.08-5.06-2.82-6.8ZM30.66,29.96c-.07.1-.17.2-.26.29-.09.09-.19.19-.29.26-1.48,1.37-3.43,2.23-5.57,2.32-.13.01-.26.01-.39.01s-.26,0-.39-.01c-2.14-.09-4.09-.95-5.57-2.32-.1-.07-.2-.17-.29-.26s-.19-.19-.26-.29c-1.37-1.48-2.23-3.43-2.32-5.57,0-.13,0-.26,0-.39s0-.26,0-.39c.09-2.14.95-4.09,2.32-5.57.07-.1.17-.2.26-.29.09-.09.19-.19.29-.26,1.48-1.37,3.43-2.23,5.57-2.32.13-.01.26-.01.39-.01s.26,0,.39.01c2.14.09,4.09.95,5.57,2.32.1.07.2.17.29.26s.19.19.26.29c1.37,1.48,2.23,3.43,2.32,5.57.01.13.01.26.01.39s0,.26-.01.39c-.09,2.14-.95,4.09-2.32,5.57Z"/>
  <path class="cls-1" d="M24.54,14.77v18.46c0,.21-.18.38-.39.38s-.39-.17-.39-.38V14.77c0-.21.17-.39.39-.39s.39.18.39.39Z"/>
  <path class="cls-1" d="M30.95,17.75l-.29.29-5.57,5.57-.39.39-.16.16-.23.23-.16.16-6.25,6.25c-.15.15-.4.15-.55,0-.15-.15-.15-.4,0-.55l13.05-13.05c.15-.15.4-.15.55,0,.15.15.15.4,0,.55Z"/>
  <path class="cls-1" d="M33.77,24c0,.21-.18.39-.39.39H14.92c-.21,0-.39-.18-.39-.39s.18-.39.39-.39h18.46c.21,0,.39.17.39.39Z"/>
  <path class="cls-1" d="M30.95,30.8c-.15.15-.4.15-.55,0l-6.41-6.41-.23-.23-.16-.16-.39-.39-5.57-5.57-.29-.29c-.15-.15-.15-.4,0-.55.15-.15.4-.15.55,0l6.25,6.25.16.16.23.23,6.41,6.41c.15.15.15.4,0,.55Z"/>
  <path class="cls-1" d="M14.77,4.98v7.49c0,.22-.17.39-.39.39s-.39-.17-.39-.39v-7.1h-7.29c.04-.13.05-.26.05-.39s0-.27-.05-.39h7.68c.22,0,.39.17.39.39Z"/>
  <path class="cls-1" d="M24.23,2.91v7.45c0,.22-.17.39-.39.39s-.39-.17-.39-.39V2.91c0-.22.18-.39.39-.39s.39.17.39.39Z"/>
  <path class="cls-1" d="M7.5,4.59c-.08-.56-.35-1.07-.73-1.45-.48-.48-1.13-.77-1.85-.77s-1.37.29-1.84.77c-.47.47-.76,1.12-.76,1.84s.29,1.37.76,1.84,1.12.76,1.84.76,1.37-.29,1.85-.76c.38-.38.65-.89.73-1.45.02-.13.03-.26.03-.39s-.01-.26-.03-.39ZM6.22,6.27c-.33.33-.79.54-1.3.54s-.96-.21-1.29-.54c-.33-.33-.54-.79-.54-1.29s.21-.96.54-1.29c.33-.34.79-.54,1.29-.54s.97.2,1.3.54c.24.24.42.55.48.9.04.12.05.26.05.39s0,.26-.05.39c-.06.34-.24.66-.48.9Z"/>
  <path class="cls-1" d="M6.75,4.98c0,.13,0,.26-.05.39-.06.34-.24.66-.48.9-.33.33-.79.54-1.3.54s-.96-.21-1.29-.54c-.33-.33-.54-.79-.54-1.29s.21-.96.54-1.29c.33-.34.79-.54,1.29-.54s.97.2,1.3.54c.24.24.42.55.48.9.04.12.05.26.05.39Z"/>
  <path class="cls-1" d="M25.69,1.07c-.48-.48-1.13-.77-1.85-.77s-1.37.29-1.84.77c-.47.47-.76,1.12-.76,1.84s.29,1.37.76,1.84c.38.38.89.65,1.45.73.13.02.26.03.39.03s.26-.01.39-.03c.56-.08,1.07-.35,1.46-.73.47-.47.76-1.12.76-1.84s-.29-1.37-.76-1.84ZM25.14,4.2c-.25.24-.56.42-.91.49-.12.04-.25.05-.39.05-.13,0-.26,0-.39-.05-.34-.07-.66-.25-.9-.49-.33-.33-.54-.79-.54-1.29s.21-.96.54-1.29c.33-.34.79-.54,1.29-.54s.96.2,1.3.54.53.78.53,1.29-.2.96-.53,1.29Z"/>
  <path class="cls-1" d="M25.67,2.91c0,.5-.2.96-.53,1.29-.25.24-.56.42-.91.49v-1.78c0-.22-.17-.39-.39-.39s-.39.17-.39.39v1.78c-.34-.07-.66-.25-.9-.49-.33-.33-.54-.79-.54-1.29s.21-.96.54-1.29c.33-.34.79-.54,1.29-.54s.96.2,1.3.54.53.78.53,1.29Z"/>
  <path class="cls-1" d="M41.38,4.98c0,.13.01.26.05.39h-7.3v7.1c0,.22-.17.39-.38.39-.11,0-.21-.04-.28-.13t-.02-.01c-.06-.07-.09-.15-.09-.25v-7.49c0-.22.17-.39.39-.39h7.68c-.04.12-.05.26-.05.39Z"/>
  <path class="cls-1" d="M41.43,4.59h-.8c-.02.13-.03.26-.03.39s.01.26.03.39h.8c-.04-.13-.05-.26-.05-.39s.01-.27.05-.39Z"/>
  <path class="cls-1" d="M45.81,4.98c0,.72-.29,1.37-.76,1.84s-1.12.76-1.84.76-1.37-.29-1.85-.76c-.38-.38-.65-.89-.73-1.45h.8c-.04-.13-.05-.26-.05-.39s.01-.27.05-.39h-.8c.08-.56.35-1.07.73-1.45.48-.48,1.13-.77,1.85-.77s1.37.29,1.84.77c.47.47.76,1.12.76,1.84Z"/>
  <path class="cls-1" d="M14.77,35.53v7.49c0,.21-.17.39-.39.39H4.92c-.21,0-.39-.18-.39-.39s.18-.39.39-.39h9.07v-7.1c0-.22.18-.39.39-.39s.39.17.39.39Z"/>
  <path class="cls-1" d="M25.67,45.09c0,.5-.2.96-.53,1.29-.34.33-.79.54-1.3.54s-.96-.21-1.29-.54c-.33-.33-.54-.79-.54-1.29s.21-.96.54-1.29c.24-.24.56-.42.9-.49v1.78c0,.21.18.39.39.39s.39-.18.39-.39v-1.78c.35.07.66.25.91.49.33.33.53.78.53,1.29Z"/>
  <path class="cls-1" d="M24.23,37.64v7.45c0,.21-.17.39-.39.39s-.39-.18-.39-.39v-7.45c0-.22.18-.39.39-.39s.39.17.39.39Z"/>
  <path class="cls-1" d="M7.5,42.63c-.08-.56-.35-1.07-.73-1.45-.48-.47-1.13-.77-1.85-.77s-1.37.3-1.84.77c-.47.47-.76,1.12-.76,1.84s.29,1.37.76,1.84,1.12.77,1.84.77,1.37-.3,1.85-.77c.38-.38.65-.89.73-1.45.02-.13.03-.26.03-.39s-.01-.26-.03-.39ZM6.22,44.31c-.33.33-.79.54-1.3.54s-.96-.21-1.29-.54-.54-.78-.54-1.29.21-.96.54-1.29.79-.54,1.29-.54.97.21,1.3.54c.24.24.42.56.48.9.04.13.05.26.05.39s0,.27-.05.39c-.06.35-.24.66-.48.9Z"/>
  <path class="cls-1" d="M4.92,43.41h1.78c-.06.35-.24.66-.48.9-.33.33-.79.54-1.3.54s-.96-.21-1.29-.54-.54-.78-.54-1.29.21-.96.54-1.29.79-.54,1.29-.54.97.21,1.3.54c.24.24.42.56.48.9h-1.78c-.21,0-.39.18-.39.39s.18.39.39.39Z"/>
  <path class="cls-1" d="M25.69,43.25c-.39-.38-.9-.65-1.46-.74-.13-.02-.26-.03-.39-.03s-.26,0-.39.03c-.56.09-1.07.36-1.45.74-.47.47-.76,1.12-.76,1.84s.29,1.37.76,1.84,1.12.77,1.84.77,1.37-.3,1.85-.77c.47-.47.76-1.12.76-1.84s-.29-1.37-.76-1.84ZM25.14,46.38c-.34.33-.79.54-1.3.54s-.96-.21-1.29-.54c-.33-.33-.54-.79-.54-1.29s.21-.96.54-1.29c.24-.24.56-.42.9-.49.13-.04.26-.05.39-.05.14,0,.27.01.39.05.35.07.66.25.91.49.33.33.53.78.53,1.29s-.2.96-.53,1.29Z"/>
  <path class="cls-1" d="M41.38,43.02c0,.13.01.27.05.39h-7.68c-.22,0-.39-.18-.39-.39v-7.49c0-.1.03-.18.09-.25t.02-.01c.07-.09.17-.13.28-.13.21,0,.38.17.38.39v7.1h7.3c-.04.13-.05.26-.05.39Z"/>
  <path class="cls-1" d="M45.05,41.18c-.47-.47-1.12-.77-1.84-.77s-1.37.3-1.85.77c-.38.38-.65.89-.73,1.45-.02.13-.03.26-.03.39s.01.26.03.39c.08.56.35,1.07.73,1.45.48.47,1.13.77,1.85.77s1.37-.3,1.84-.77.76-1.12.76-1.84-.29-1.37-.76-1.84ZM44.5,44.31c-.33.33-.79.54-1.29.54s-.97-.21-1.3-.54c-.24-.24-.42-.55-.48-.9-.04-.12-.05-.26-.05-.39s.01-.26.05-.39c.06-.34.24-.66.48-.9.33-.33.79-.54,1.3-.54s.96.21,1.29.54c.33.33.53.79.53,1.29s-.2.96-.53,1.29Z"/>
  <path class="cls-1" d="M45.03,43.02c0,.51-.2.96-.53,1.29-.33.33-.79.54-1.29.54s-.97-.21-1.3-.54c-.24-.24-.42-.55-.48-.9-.04-.12-.05-.26-.05-.39s.01-.26.05-.39c.06-.34.24-.66.48-.9.33-.33.79-.54,1.3-.54s.96.21,1.29.54c.33.33.53.79.53,1.29Z"/>
  <path class="cls-1" d="M32.78,15.37c-2.21-2.21-5.26-3.57-8.63-3.57s-6.42,1.36-8.63,3.57c-2.21,2.21-3.57,5.26-3.57,8.63s1.36,6.42,3.57,8.63c2.21,2.2,5.26,3.57,8.63,3.57s6.42-1.37,8.63-3.57c2.21-2.21,3.57-5.26,3.57-8.63s-1.36-6.42-3.57-8.63ZM32.23,32.08c-2.07,2.07-4.93,3.34-8.08,3.34s-6.01-1.27-8.08-3.34-3.35-4.93-3.35-8.08,1.28-6.01,3.35-8.08c2.07-2.07,4.92-3.35,8.08-3.35s6.01,1.28,8.08,3.35c2.07,2.07,3.34,4.92,3.34,8.08s-1.27,6.01-3.34,8.08Z"/>
  <path class="cls-2" d="M23.21,23.61h-7.89c.09-2.14.95-4.09,2.32-5.57l5.57,5.57Z"/>
  <path class="cls-2" d="M23.21,24.39l-5.57,5.57c-1.37-1.48-2.23-3.43-2.32-5.57h7.89Z"/>
  <path class="cls-2" d="M23.76,24.94v7.89c-2.14-.09-4.09-.95-5.57-2.32l5.57-5.57Z"/>
  <path class="cls-2" d="M30.11,30.51c-1.48,1.37-3.43,2.23-5.57,2.32v-7.89l5.57,5.57Z"/>
  <path class="cls-2" d="M32.98,24.39c-.09,2.14-.95,4.09-2.32,5.57l-5.57-5.57h7.89Z"/>
  <path class="cls-2" d="M32.98,23.61h-7.89l5.57-5.57c1.37,1.48,2.23,3.43,2.32,5.57Z"/>
  <path class="cls-2" d="M30.11,17.49l-5.57,5.57v-7.89c2.14.09,4.09.95,5.57,2.32Z"/>
  <path class="cls-2" d="M23.76,15.17v7.89l-5.57-5.57c1.48-1.37,3.43-2.23,5.57-2.32Z"/>
</svg>