<?xml version="1.0" encoding="UTF-8"?>
<svg id="Capa_1" data-name="Capa 1" xmlns="http://www.w3.org/2000/svg" viewBox="0 0 48 48">
  <defs>
    <style>
      .cls-1 {
        fill: #85f1ff;
      }
    </style>
  </defs>
  <path d="M44.48,20.15c-1.69,0-3.11,1.15-3.54,2.71h-3.55c-.4-1.16-1.5-2-2.8-2s-2.39.84-2.8,2h-4.07c-.09-.35-.23-.68-.41-.99l2.88-2.88c.4.19.84.3,1.3.3.79,0,1.54-.3,2.1-.87.92-.92,1.09-2.29.56-3.39l2.51-2.51c.55.32,1.16.5,1.81.5.98,0,1.91-.39,2.6-1.08,1.43-1.43,1.43-3.77,0-5.2-1.39-1.4-3.82-1.39-5.2,0-1.19,1.19-1.38,3.01-.58,4.42l-2.51,2.51c-1.11-.51-2.5-.33-3.39.55-.56.56-.87,1.3-.87,2.1,0,.46.11.9.31,1.3l-2.88,2.88c-.3-.18-.64-.32-.99-.42v-4.07c1.16-.4,2-1.5,2-2.8s-.85-2.39-2-2.8v-3.55c1.55-.43,2.71-1.84,2.71-3.53,0-2.03-1.65-3.68-3.68-3.68s-3.68,1.65-3.68,3.68c0,1.69,1.16,3.1,2.72,3.53v3.55c-1.17.41-2.01,1.5-2.01,2.8s.84,2.39,2.01,2.79v4.07c-.35.1-.68.23-1,.42l-2.88-2.88c.54-1.11.35-2.48-.56-3.39-.89-.89-2.28-1.06-3.39-.55l-2.52-2.52c.32-.55.5-1.17.5-1.81,0-.98-.39-1.91-1.08-2.6-.7-.7-1.62-1.08-2.61-1.08s-1.91.39-2.6,1.08c-.7.7-1.07,1.62-1.07,2.6s.37,1.91,1.07,2.6c.7.7,1.62,1.08,2.6,1.08.66,0,1.27-.18,1.82-.5l2.5,2.5c-.2.4-.31.84-.31,1.29,0,.79.31,1.54.87,2.1.57.56,1.31.87,2.11.87.46,0,.89-.11,1.3-.3l2.88,2.88c-.18.3-.33.64-.41.99h-4.07c-.41-1.16-1.5-2-2.8-2s-2.4.84-2.8,2h-3.55c-.42-1.56-1.84-2.71-3.54-2.71-2.03,0-3.67,1.65-3.67,3.68s1.65,3.68,3.67,3.68c1.69,0,3.11-1.15,3.54-2.71h3.55c.4,1.17,1.5,2,2.79,2s2.4-.84,2.8-2h4.07c.09.35.23.68.41.99l-2.89,2.89c-1.11-.51-2.5-.33-3.39.55-.56.56-.87,1.31-.87,2.1,0,.46.11.9.3,1.29l-2.51,2.51c-1.4-.76-3.26-.58-4.41.58-.7.7-1.08,1.62-1.08,2.6s.37,1.91,1.08,2.6c.7.7,1.62,1.08,2.6,1.08s1.91-.39,2.61-1.08c.69-.7,1.08-1.62,1.08-2.6,0-.65-.18-1.27-.5-1.82l2.51-2.5c.4.19.84.3,1.3.3.79,0,1.54-.3,2.1-.86.56-.56.87-1.31.87-2.1,0-.46-.11-.9-.31-1.3l2.88-2.88c.31.18.65.33,1,.42v4.07c-1.17.4-2.01,1.5-2.01,2.8s.85,2.4,2.01,2.8v3.54c-1.56.43-2.72,1.84-2.72,3.54,0,2.03,1.65,3.68,3.68,3.68s3.68-1.65,3.68-3.68c0-1.69-1.15-3.11-2.71-3.54v-3.54c1.16-.41,2-1.5,2-2.8s-.85-2.4-2-2.8v-4.07c.35-.1.68-.23.99-.42l2.88,2.88c-.19.4-.3.84-.3,1.3,0,.79.3,1.54.87,2.1.56.56,1.31.86,2.1.86.46,0,.9-.11,1.3-.3l2.5,2.5c-.8,1.41-.61,3.23.58,4.42.7.7,1.62,1.08,2.6,1.08s1.91-.39,2.6-1.08c1.43-1.43,1.43-3.77,0-5.2-1.16-1.16-3.01-1.34-4.41-.58l-2.51-2.51c.54-1.11.36-2.48-.56-3.39-.89-.89-2.28-1.06-3.39-.55l-2.89-2.89c.18-.3.32-.64.41-.99h4.07c.41,1.17,1.5,2,2.8,2s2.39-.84,2.79-2h3.55c.42,1.56,1.84,2.71,3.53,2.71,2.03,0,3.68-1.65,3.68-3.68s-1.65-3.68-3.68-3.68ZM37.25,8.1c.33-.33.77-.51,1.23-.51s.91.18,1.23.51c.68.68.68,1.79,0,2.47-.66.66-1.81.66-2.47,0h0c-.34-.34-.51-.79-.51-1.24s.17-.9.51-1.23ZM10.74,10.57h0c-.66.66-1.81.66-2.47,0-.33-.33-.5-.77-.5-1.24s.18-.9.5-1.23c.33-.33.77-.51,1.23-.51s.91.18,1.24.51c.33.33.51.77.51,1.23s-.18.91-.51,1.23ZM3.5,25.57c-.96,0-1.74-.78-1.74-1.74s.78-1.74,1.74-1.74,1.75.78,1.75,1.74-.78,1.74-1.74,1.74ZM10.74,39.55c-.66.66-1.81.66-2.47,0-.33-.33-.5-.77-.5-1.23s.18-.91.5-1.23c.33-.33.77-.52,1.23-.52s.91.18,1.24.52c.33.33.51.77.51,1.23s-.18.9-.51,1.23ZM22.25,3.34c0-.97.78-1.75,1.74-1.75s1.75.78,1.75,1.75-.78,1.74-1.75,1.74-1.74-.78-1.74-1.74ZM25.74,44.31c0,.97-.78,1.75-1.75,1.75s-1.74-.78-1.74-1.74.78-1.74,1.74-1.74,1.75.78,1.75,1.74ZM23.99,25.77c-1.07,0-1.94-.87-1.94-1.94s.87-1.94,1.94-1.94,1.94.87,1.94,1.94-.87,1.94-1.94,1.94ZM37.25,37.08c.33-.33.77-.51,1.23-.51s.91.18,1.24.51c.68.68.68,1.79,0,2.47-.66.66-1.81.66-2.47,0-.68-.68-.68-1.79,0-2.47ZM44.48,25.57c-.97,0-1.75-.78-1.75-1.74s.78-1.74,1.75-1.74,1.75.78,1.75,1.74-.79,1.74-1.75,1.74Z"/>
  <path class="cls-1" d="M11.25,9.34c0,.47-.18.91-.51,1.23h0c-.66.66-1.81.66-2.47,0-.33-.33-.5-.77-.5-1.24s.18-.9.5-1.23c.33-.33.77-.51,1.23-.51s.91.18,1.24.51c.33.33.51.77.51,1.23Z"/>
  <path class="cls-1" d="M5.25,23.83c0,.96-.78,1.74-1.74,1.74s-1.74-.78-1.74-1.74.78-1.74,1.74-1.74,1.75.78,1.75,1.74Z"/>
  <path class="cls-1" d="M11.25,38.32c0,.47-.18.9-.51,1.23-.66.66-1.81.66-2.47,0-.33-.33-.5-.77-.5-1.23s.18-.91.5-1.23c.33-.33.77-.52,1.23-.52s.91.18,1.24.52c.33.33.51.77.51,1.23Z"/>
  <path class="cls-1" d="M25.74,44.31c0,.97-.78,1.75-1.75,1.75s-1.74-.78-1.74-1.74.78-1.74,1.74-1.74,1.75.78,1.75,1.74Z"/>
  <path class="cls-1" d="M39.72,39.55c-.66.66-1.81.66-2.47,0-.68-.68-.68-1.79,0-2.47.33-.33.77-.51,1.23-.51s.91.18,1.24.51c.68.68.68,1.79,0,2.47Z"/>
  <ellipse class="cls-1" cx="44.48" cy="23.83" rx="1.75" ry="1.74"/>
  <path class="cls-1" d="M39.71,10.57c-.66.66-1.81.66-2.47,0h0c-.34-.34-.51-.79-.51-1.24s.17-.9.51-1.23c.33-.33.77-.51,1.23-.51s.91.18,1.23.51c.68.68.68,1.79,0,2.47Z"/>
  <path class="cls-1" d="M25.74,3.34c0,.96-.78,1.74-1.75,1.74s-1.74-.78-1.74-1.74.78-1.75,1.74-1.75,1.75.78,1.75,1.75Z"/>
  <ellipse cx="23.99" cy="23.83" rx="1.94" ry="1.94"/>
</svg>