<?xml version="1.0" encoding="UTF-8"?>
<svg id="Capa_1" data-name="Capa 1" xmlns="http://www.w3.org/2000/svg" viewBox="0 0 48 48">
  <defs>
    <style>
      .cls-1 {
        fill: #161615;
        font-family: MyriadPro-Regular, 'Myriad Pro';
        font-size: 12px;
      }

      .cls-2 {
        letter-spacing: 0em;
      }

      .cls-3 {
        letter-spacing: 0em;
      }

      .cls-4 {
        fill: #020202;
      }

      .cls-4, .cls-5 {
        fill-rule: evenodd;
      }

      .cls-6 {
        letter-spacing: -.02em;
      }

      .cls-7 {
        letter-spacing: 0em;
      }

      .cls-8 {
        letter-spacing: 0em;
      }

      .cls-9 {
        letter-spacing: 0em;
      }

      .cls-10 {
        letter-spacing: 0em;
      }

      .cls-5 {
        fill: #85f1ff;
      }

      .cls-11 {
        letter-spacing: -.01em;
      }

      .cls-12 {
        letter-spacing: 0em;
      }

      .cls-13 {
        letter-spacing: 0em;
      }

      .cls-14 {
        letter-spacing: 0em;
      }
    </style>
  </defs>
  <path class="cls-4" d="M24.06,17.5c-.46,0-.84.38-.84.84s.38.84.84.84.84-.38.84-.84-.37-.84-.84-.84ZM24.06,17.5c-.46,0-.84.38-.84.84s.38.84.84.84.84-.38.84-.84-.37-.84-.84-.84ZM42.76,24.85h1.13c.26.7.85,1.23,1.59,1.36h.01c.13.03.26.04.39.04,1.18,0,2.12-.95,2.12-2.12s-.94-2.13-2.12-2.13c-.14,0-.28,0-.42.05-.72.14-1.32.66-1.57,1.35h-7.07v-4.05h2.16c.27,0,.51-.15.63-.37l2.55-3.7h1.73c.26.7.85,1.23,1.59,1.36h.01c.13.03.26.04.39.04,1.18,0,2.12-.95,2.12-2.13s-.94-2.12-2.12-2.12c-.14,0-.28,0-.41.05-.73.13-1.33.66-1.58,1.35h-2.11c-.23,0-.46.11-.6.31l-2.58,3.75h-1.78v-5.63c0-.55-.45-1-1-1h-5.63v-1.78l3.74-2.59c.21-.14.32-.36.32-.59v-2.11c.77-.28,1.33-.99,1.38-1.85h0c.01-.06.01-.1.01-.15,0-1.17-.95-2.12-2.12-2.12s-2.12.95-2.12,2.12c0,.06,0,.12.02.18h0c.06.85.62,1.54,1.37,1.82v1.73l-3.7,2.54c-.22.13-.36.36-.36.63v2.17h-4.05v-7.08c.76-.27,1.32-.97,1.37-1.82h0c.02-.07.02-.11.02-.17,0-1.17-.95-2.12-2.12-2.12s-2.12.95-2.12,2.12c0,.06,0,.1.02.16,0,0-.01,0,0,.01.05.85.61,1.55,1.37,1.82v7.07h-4.05v-2.16c0-.27-.15-.5-.37-.63l-3.7-2.55v-1.73c.77-.27,1.33-.97,1.38-1.82h0c.02-.07.02-.11.02-.17,0-1.17-.95-2.12-2.13-2.12s-2.12.95-2.12,2.12c0,.06,0,.12.02.18h0c.06.85.62,1.54,1.38,1.81v2.11c0,.24.11.46.31.6l3.75,2.58v1.79h-5.63c-.55,0-1,.45-1,.99v5.64h-1.78l-2.58-3.75c-.14-.2-.37-.31-.6-.31h-2.11c-.25-.69-.85-1.21-1.58-1.35,0,0,0-.01-.01,0-.14-.04-.27-.05-.41-.05C.84,12.43-.11,13.38-.11,14.55s.95,2.13,2.12,2.13c.15,0,.3-.02.44-.05.72-.15,1.31-.66,1.56-1.35h1.73l2.55,3.7c.12.22.36.37.63.37h2.16v4.05h-7.07c-.25-.69-.85-1.21-1.58-1.35,0,0,0-.01-.01,0-.14-.04-.27-.05-.41-.05-1.17,0-2.12.95-2.12,2.13s.95,2.12,2.12,2.12c.15,0,.29-.01.43-.05.73-.14,1.32-.66,1.57-1.35h7.07v4.06h-2.16c-.28,0-.51.14-.64.36l-2.54,3.7h-1.73c-.26-.69-.85-1.21-1.59-1.35h-.01c-.13-.03-.26-.04-.4-.04-1.17,0-2.12.95-2.12,2.12s.95,2.12,2.12,2.12c.14,0,.28,0,.42-.05.73-.14,1.33-.66,1.58-1.34h2.11c.23,0,.46-.11.6-.32l2.58-3.75h1.78v5.64c0,.54.45.99,1,.99h5.63v1.79l-3.75,2.58c-.2.14-.31.36-.31.6v2.11c-.82.29-1.4,1.08-1.4,1.99,0,1.17.95,2.12,2.12,2.12s2.13-.95,2.13-2.12c0-.91-.58-1.7-1.4-1.99v-1.73l3.7-2.55c.22-.13.37-.36.37-.63v-2.16h4.05v7.07c-.81.3-1.39,1.08-1.39,1.99,0,1.17.95,2.12,2.12,2.12s2.12-.95,2.12-2.12c0-.91-.58-1.69-1.39-1.99v-7.07h4.05v2.16c0,.27.15.51.37.63l3.69,2.55v1.73c-.81.3-1.39,1.08-1.39,1.99,0,1.18.95,2.13,2.12,2.13s2.12-.95,2.12-2.13c0-.91-.58-1.69-1.39-1.99v-2.11c0-.23-.11-.46-.31-.6l-3.75-2.58v-1.78h5.63c.55,0,1-.45,1-1v-5.64h1.78l2.58,3.75c.14.21.37.32.6.32h2.11c.26.69.87,1.22,1.61,1.35.12.03.25.04.38.04,1.18,0,2.12-.95,2.12-2.12s-.94-2.12-2.12-2.12c-.14,0-.26.01-.39.05,0,0,0,0-.01,0-.73.13-1.34.65-1.59,1.34h-1.73l-2.55-3.7c-.12-.22-.36-.36-.63-.36h-2.16v-4.05h5.94ZM29.91,34.26c0,.18-.15.32-.32.32h-13.27c-.18,0-.32-.15-.32-.32v-2.11c0-.17.14-.31.32-.31h13.27c.17,0,.32.14.32.31v2.11ZM30.11,24.27l-4.38-1.16c-.21-.06-.44-.02-.62.12-1.41,1.05-3.46.07-3.46-1.73,0-.4-.33-.73-.73-.73s-.73.33-.73.73c0,2.61,2.67,4.35,5.05,3.32.9,2.25,3.33,2.35,3.33,5.41v.15h-11.23v-11.09c0-3.09,2.52-5.62,5.61-5.62,1.72,0,3.34.8,4.4,2.14l-1.07,1.36,5.62,4.69-1.79,2.41ZM24.06,17.5c-.46,0-.84.38-.84.84s.38.84.84.84.84-.38.84-.84-.37-.84-.84-.84ZM24.06,17.5c-.46,0-.84.38-.84.84s.38.84.84.84.84-.38.84-.84-.37-.84-.84-.84ZM24.06,17.5c-.46,0-.84.38-.84.84s.38.84.84.84.84-.38.84-.84-.37-.84-.84-.84Z"/>
  <path class="cls-5" d="M29.91,32.15v2.11c0,.18-.15.32-.32.32h-13.27c-.18,0-.32-.15-.32-.32v-2.11c0-.17.14-.31.32-.31h13.27c.17,0,.32.14.32.31Z"/>
  <path class="cls-5" d="M20.92,20.77c.4,0,.73.33.73.73,0,1.8,2.05,2.78,3.46,1.73.18-.14.41-.18.62-.12l4.38,1.16,1.79-2.41-5.62-4.69,1.07-1.36c-1.06-1.34-2.68-2.14-4.4-2.14-3.09,0-5.61,2.53-5.61,5.62v11.09h11.23v-.15c0-3.06-2.43-3.16-3.33-5.41-2.38,1.03-5.05-.71-5.05-3.32,0-.4.33-.73.73-.73ZM24.06,17.5c.47,0,.84.38.84.84s-.37.84-.84.84-.84-.38-.84-.84.38-.84.84-.84Z"/>
  <text class="cls-1" transform="translate(-1.97 -11.97)"><tspan class="cls-14" x="0" y="0">D</tspan><tspan class="cls-2" x="8.04" y="0">e</tspan><tspan class="cls-12" x="14.05" y="0">v</tspan><tspan x="19.7" y="0">elopme</tspan><tspan class="cls-9" x="57.98" y="0">n</tspan><tspan class="cls-3" x="64.59" y="0">t of </tspan><tspan class="cls-13" x="83.75" y="0">S</tspan><tspan x="89.63" y="0">t</tspan><tspan class="cls-10" x="93.6" y="0">r</tspan><tspan class="cls-9" x="97.46" y="0">a</tspan><tspan class="cls-8" x="103.2" y="0">t</tspan><tspan x="107.1" y="0">e</tspan><tspan class="cls-7" x="113.11" y="0">g</tspan><tspan class="cls-3" x="119.75" y="0">ic Options → Un table</tspan><tspan class="cls-11" x="223.83" y="0">r</tspan><tspan x="227.64" y="0">o de ajed</tspan><tspan class="cls-11" x="273.57" y="0">r</tspan><tspan x="277.38" y="0">ez </tspan><tspan class="cls-8" x="291.07" y="0">c</tspan><tspan x="296.37" y="0">on piezas est</tspan><tspan class="cls-10" x="360.76" y="0">r</tspan><tspan class="cls-9" x="364.63" y="0">a</tspan><tspan class="cls-8" x="370.36" y="0">t</tspan><tspan x="374.26" y="0">é</tspan><tspan class="cls-7" x="380.27" y="0">g</tspan><tspan x="386.91" y="0">icas o un dia</tspan><tspan class="cls-7" x="448.48" y="0">g</tspan><tspan class="cls-10" x="455.12" y="0">r</tspan><tspan x="458.98" y="0">ama de fluj</tspan><tspan class="cls-6" x="514.23" y="0">o</tspan><tspan class="cls-3" x="520.53" y="0">.</tspan></text>
</svg>