<?xml version="1.0" encoding="UTF-8"?>
<svg id="Capa_1" data-name="Capa 1" xmlns="http://www.w3.org/2000/svg" viewBox="0 0 48 48">
  <defs>
    <style>
      .cls-1 {
        fill: #85f1ff;
      }

      .cls-2 {
        fill: #020202;
        stroke: #000;
        stroke-miterlimit: 10;
        stroke-width: .25px;
      }
    </style>
  </defs>
  <path class="cls-2" d="M30.9,31.83c2.16,0,4.15-.77,5.7-2.05l2.49,2.49-1.03,1.03c-.12.12-.12.3,0,.41l4.92,4.92c.49.49,1.15.77,1.84.77s1.35-.27,1.84-.77c1.01-1.01,1.01-2.67,0-3.69l-4.92-4.92c-.11-.11-.3-.11-.41,0l-1.03,1.03-2.49-2.49c1.28-1.55,2.05-3.54,2.05-5.7,0-4.96-4.03-8.99-8.99-8.99s-8.98,4.02-8.98,8.98,4.03,8.99,8.99,8.99h0ZM30.9,15.59c3.99,0,7.25,3.25,7.25,7.25s-3.25,7.25-7.25,7.25-7.25-3.25-7.25-7.25,3.25-7.25,7.25-7.25ZM48,44.87c0,.48-.39.87-.87.87H.76c-.48,0-.87-.39-.87-.87V3.13c0-.48.39-.87.87-.87s.87.39.87.87v40.87h5.22v-7.25c0-.48.39-.87.87-.87s.87.39.87.87v7.25h7.54v-17.68c0-.48.39-.87.87-.87s.87.39.87.87v17.68h7.54v-8.41c0-.48.39-.87.87-.87s.87.39.87.87v8.41h7.54v-4.93c0-.48.39-.87.87-.87s.87.39.87.87v4.93h10.72c.48,0,.87.39.87.87ZM25.9,21.47c-.43-.2-.62-.72-.42-1.15.2-.43.72-.62,1.15-.42l1.86.87c.59-.68,1.47-1.1,2.41-1.1.42,0,.84.09,1.23.26l.87-1.09c.3-.38.85-.43,1.22-.13.38.3.43.85.13,1.22l-.87,1.08c.38.54.6,1.18.6,1.85,0,1.76-1.43,3.19-3.19,3.19s-3.19-1.43-3.19-3.19c0-.17.02-.34.05-.5l-1.85-.89ZM3.36,29.8c0-1.76,1.43-3.19,3.19-3.19.17,0,.33.02.49.04l4.39-9.51c-.69-.6-1.11-1.48-1.11-2.42,0-1.76,1.43-3.19,3.19-3.19s3.19,1.43,3.19,3.19c0,.17-.02.34-.05.5l4.18,1.95c.43.2.62.72.42,1.15-.14.31-.46.5-.79.5-.12,0-.25-.02-.36-.08l-4.18-1.95c-.6.69-1.48,1.11-2.41,1.11-.17,0-.34-.02-.5-.04l-4.39,9.51c.69.59,1.12,1.47,1.12,2.42,0,.75-.27,1.48-.75,2.05-.6.72-1.49,1.14-2.44,1.14-1.76,0-3.19-1.44-3.19-3.19h0ZM37.18,13.6l5.05-6.31c-.29-.41-.49-.86-.56-1.36-.03-.19-.04-.35-.04-.48,0-1.76,1.43-3.19,3.19-3.19s3.19,1.43,3.19,3.19-1.43,3.19-3.19,3.19c-.42,0-.84-.1-1.23-.26l-5.05,6.31c-.17.22-.42.32-.68.32-.19,0-.38-.06-.55-.19-.37-.3-.43-.84-.13-1.22h0Z"/>
  <circle class="cls-1" cx="30.9" cy="22.84" r="7.25"/>
</svg>