<?xml version="1.0" encoding="utf-8"?>
<!-- Generator: Adobe Illustrator 25.4.1, SVG Export Plug-In . SVG Version: 6.00 Build 0)  -->
<svg version="1.1" id="Capa_1" xmlns="http://www.w3.org/2000/svg" xmlns:xlink="http://www.w3.org/1999/xlink" x="0px" y="0px"
	 viewBox="0 0 75 74" style="enable-background:new 0 0 75 74;" xml:space="preserve">
<style type="text/css">
	.st0{fill:#00FFFF;}
</style>
<g id="_x2D_-">
	<g id="imagen" transform="translate(13.000000, 7.000000)">
		<path id="Fill-12" d="M40.8,33.6v-0.1V44H8.2v-7.3v0V9.3h32.7V33.6z M2.7,3.8v52.3l43.7,0.1V3.9L2.7,3.8L2.7,3.8z"/>
		<path id="Fill-13" d="M13.6,14.3c-1.7,0-3.1,1.4-3.1,3.1c0,1.7,1.4,3.1,3.1,3.1c1.7,0,3.1-1.4,3.1-3.1
			C16.6,15.6,15.3,14.3,13.6,14.3"/>
		<polyline id="Fill-14" class="st0" points="21.3,34.2 15,28.2 9.6,35.6 9.6,42.2 39.4,42.2 39.4,32.6 29.6,22.1 21.3,34.2 		"/>
	</g>
</g>
</svg>
